<svg width="32" height="32" viewBox="0 0 32 32" fill="none" xmlns="http://www.w3.org/2000/svg">
<path d="M23.4131 2.63184H8.17385C5.11335 2.63184 2.63232 5.11286 2.63232 8.17336V23.4126C2.63232 26.4731 5.11335 28.9541 8.17385 28.9541H23.4131C26.4736 28.9541 28.9546 26.4731 28.9546 23.4126V8.17336C28.9546 5.11286 26.4736 2.63184 23.4131 2.63184Z" stroke="white" stroke-width="1.5"/>
<path d="M15.7936 24.7981C20.7669 24.7981 24.7985 20.7664 24.7985 15.7931C24.7985 10.8198 20.7669 6.78809 15.7936 6.78809C10.8202 6.78809 6.78857 10.8198 6.78857 15.7931C6.78857 20.7664 10.8202 24.7981 15.7936 24.7981Z" stroke="white" stroke-width="1.5"/>
<path d="M15.7934 19.949C18.0887 19.949 19.9495 18.0882 19.9495 15.7929C19.9495 13.4975 18.0887 11.6367 15.7934 11.6367C13.498 11.6367 11.6372 13.4975 11.6372 15.7929C11.6372 18.0882 13.498 19.949 15.7934 19.949Z" fill="white"/>
</svg>
