<svg width="32" height="32" viewBox="0 0 32 32" fill="none" xmlns="http://www.w3.org/2000/svg">
<path d="M15.9586 11.8686C14.8573 11.8655 13.7663 12.081 12.7488 12.5025C11.7314 12.924 10.8077 13.5432 10.0312 14.3243C9.25021 15.1007 8.63112 16.0245 8.20983 17.042C7.78853 18.0594 7.57341 19.1505 7.57694 20.2517C7.57694 22.4922 8.44732 24.5939 10.0326 26.1791C10.809 26.9601 11.7328 27.5792 12.7503 28.0005C13.7678 28.4218 14.8588 28.6369 15.96 28.6334C17.0613 28.6367 18.1522 28.4215 19.1697 28.0002C20.1871 27.5789 21.1109 26.96 21.8875 26.1791C22.6684 25.4027 23.2875 24.479 23.7088 23.4615C24.1301 22.444 24.3452 21.353 24.3417 20.2517C24.3448 19.1504 24.1294 18.0594 23.7079 17.0419C23.2863 16.0245 22.6671 15.1007 21.8861 14.3243C21.1097 13.5431 20.186 12.9238 19.1685 12.5023C18.151 12.0807 17.06 11.8654 15.9586 11.8686ZM22.1207 14.0897L22.2414 14.1966L22.2262 14.2105L22.5038 14.527C23.8977 16.1079 24.6655 18.144 24.6624 20.2517C24.6624 22.5741 23.7559 24.7618 22.1123 26.404C21.306 27.2146 20.347 27.8574 19.2908 28.2951C18.2345 28.7328 17.102 28.9568 15.9586 28.9541C14.8155 28.9566 13.6833 28.7325 12.6273 28.2948C11.5713 27.8571 10.6125 27.2145 9.80632 26.404C8.99588 25.5979 8.35324 24.6391 7.91554 23.5831C7.47785 22.5271 7.25378 21.3948 7.25628 20.2517C7.25628 17.9279 8.16274 15.7402 9.80632 14.098C10.6125 13.2876 11.5713 12.6449 12.6273 12.2072C13.6833 11.7695 14.8155 11.5455 15.9586 11.548C18.0784 11.548 20.0912 12.3115 21.6834 13.7079L21.9999 13.9856L22.0138 13.9689L22.1207 14.0897ZM15.9586 5.67606C16.0475 5.67606 16.1197 5.74825 16.1197 5.8357V2.63184C16.1197 2.67454 16.1027 2.7155 16.0725 2.7457C16.0423 2.7759 16.0013 2.79286 15.9586 2.79286C15.9162 2.7925 15.8756 2.77537 15.8457 2.74521C15.8158 2.71505 15.799 2.6743 15.799 2.63184V5.8357C15.799 5.74825 15.8712 5.67606 15.9586 5.67606ZM29.0587 8.21917C29.0285 8.18897 29.0115 8.14803 29.0115 8.10534C29.0115 8.06265 29.0285 8.02171 29.0587 7.99151L26.796 10.257C26.8261 10.2272 26.8668 10.2105 26.9091 10.2105C26.9515 10.2105 26.9921 10.2272 27.0222 10.257C27.0524 10.2872 27.0694 10.3281 27.0694 10.3708C27.0694 10.4135 27.0524 10.4544 27.0222 10.4846L29.2877 8.21917C29.2576 8.24892 29.2169 8.26561 29.1746 8.26561C29.1322 8.26561 29.0916 8.24892 29.0615 8.21917H29.0587ZM2.63232 8.21917L4.8978 10.4846C4.87576 10.4621 4.86085 10.4335 4.85491 10.4025C4.84897 10.3715 4.85227 10.3394 4.8644 10.3103C4.87652 10.2812 4.89694 10.2563 4.92312 10.2386C4.94929 10.221 4.98007 10.2115 5.01163 10.2112C5.05327 10.2112 5.09492 10.2278 5.12407 10.257L2.85859 7.99151C2.88877 8.02171 2.90572 8.06265 2.90572 8.10534C2.90572 8.14803 2.88877 8.18897 2.85859 8.21917C2.82846 8.24892 2.78781 8.26561 2.74546 8.26561C2.70311 8.26561 2.66246 8.24892 2.63232 8.21917ZM20.6409 3.22736L19.8122 6.32295C19.8173 6.30261 19.8265 6.2835 19.8391 6.2667C19.8516 6.2499 19.8674 6.23575 19.8854 6.22505C19.9035 6.21434 19.9235 6.20731 19.9442 6.20434C19.965 6.20136 19.9862 6.20252 20.0065 6.20773C20.094 6.23133 20.1439 6.31878 20.1217 6.40346L20.9504 3.31064C20.945 3.33097 20.9356 3.35002 20.9227 3.36671C20.9099 3.38339 20.8939 3.39739 20.8757 3.40789C20.8574 3.4184 20.8373 3.42521 20.8164 3.42793C20.7956 3.43066 20.7743 3.42925 20.754 3.42378C20.7337 3.41831 20.7146 3.40889 20.698 3.39606C20.6813 3.38323 20.6673 3.36724 20.6568 3.349C20.6463 3.33076 20.6395 3.31063 20.6367 3.28976C20.634 3.26889 20.6354 3.24768 20.6409 3.22736ZM10.9682 3.31064L11.7969 6.40485C11.7915 6.38452 11.7901 6.36332 11.7928 6.34245C11.7955 6.32157 11.8023 6.30144 11.8128 6.2832C11.8233 6.26496 11.8373 6.24897 11.854 6.23614C11.8707 6.22331 11.8897 6.21389 11.9101 6.20842C11.9304 6.20295 11.9516 6.20154 11.9725 6.20427C11.9933 6.20699 12.0135 6.2138 12.0317 6.22431C12.05 6.23482 12.0659 6.24881 12.0788 6.2655C12.0916 6.28218 12.101 6.30123 12.1065 6.32156L11.2778 3.22874C11.2844 3.26822 11.2761 3.30876 11.2545 3.34245C11.2329 3.37614 11.1995 3.40057 11.1608 3.41097C11.1222 3.42137 11.081 3.417 11.0454 3.39871C11.0098 3.38042 10.9823 3.34952 10.9682 3.31203V3.31064ZM25.1649 5.05556L23.5616 7.83048C23.5827 7.79367 23.6177 7.76677 23.6587 7.75571C23.6997 7.74464 23.7434 7.75032 23.7802 7.77149C23.817 7.79266 23.8439 7.82759 23.855 7.86859C23.8661 7.90959 23.8604 7.95331 23.8392 7.99012L25.4411 5.21658C25.4199 5.25319 25.3851 5.2799 25.3442 5.29083C25.3034 5.30176 25.2598 5.29603 25.2232 5.27489C25.1865 5.25343 25.1598 5.21833 25.1488 5.17724C25.1379 5.13615 25.1437 5.09241 25.1649 5.05556ZM8.35709 7.83048L6.75515 5.05556C6.77651 5.09237 6.78236 5.13617 6.77142 5.1773C6.76049 5.21843 6.73367 5.25353 6.69685 5.27489C6.66003 5.29624 6.61624 5.30209 6.57511 5.29116C6.53398 5.28023 6.49887 5.2534 6.47752 5.21658L8.07807 7.99012C8.06199 7.95375 8.05994 7.91272 8.07232 7.87493C8.08469 7.83713 8.11061 7.80526 8.14508 7.78544C8.17956 7.76561 8.22014 7.75925 8.25903 7.76757C8.29792 7.77588 8.33374 7.7983 8.35709 7.83048Z" stroke="white" stroke-width="1.5"/>
</svg>
