<svg width="32" height="33" viewBox="0 0 32 33" fill="none" xmlns="http://www.w3.org/2000/svg">
<path d="M23.4131 3.63184H8.17385C5.11335 3.63184 2.63232 6.11286 2.63232 9.17336V24.4126C2.63232 27.4731 5.11335 29.9541 8.17385 29.9541H23.4131C26.4736 29.9541 28.9546 27.4731 28.9546 24.4126V9.17336C28.9546 6.11286 26.4736 3.63184 23.4131 3.63184Z" stroke="#818181" stroke-width="1.5"/>
<path d="M15.7936 25.7981C20.7669 25.7981 24.7985 21.7664 24.7985 16.7931C24.7985 11.8198 20.7669 7.78809 15.7936 7.78809C10.8202 7.78809 6.78857 11.8198 6.78857 16.7931C6.78857 21.7664 10.8202 25.7981 15.7936 25.7981Z" stroke="#818181" stroke-width="1.5"/>
<path d="M15.7934 20.949C18.0887 20.949 19.9495 19.0882 19.9495 16.7929C19.9495 14.4975 18.0887 12.6367 15.7934 12.6367C13.498 12.6367 11.6372 14.4975 11.6372 16.7929C11.6372 19.0882 13.498 20.949 15.7934 20.949Z" fill="#818181"/>
</svg>
