<svg width="32" height="33" viewBox="0 0 32 33" fill="none" xmlns="http://www.w3.org/2000/svg">
<path d="M15.9586 12.8686C14.8573 12.8655 13.7663 13.081 12.7488 13.5025C11.7314 13.924 10.8077 14.5432 10.0312 15.3243C9.25021 16.1007 8.63112 17.0245 8.20983 18.042C7.78853 19.0594 7.57341 20.1505 7.57694 21.2517C7.57694 23.4922 8.44732 25.5939 10.0326 27.1791C10.809 27.9601 11.7328 28.5792 12.7503 29.0005C13.7678 29.4218 14.8588 29.6369 15.96 29.6334C17.0613 29.6367 18.1522 29.4215 19.1697 29.0002C20.1871 28.5789 21.1109 27.96 21.8875 27.1791C22.6684 26.4027 23.2875 25.479 23.7088 24.4615C24.1301 23.444 24.3452 22.353 24.3417 21.2517C24.3448 20.1504 24.1294 19.0594 23.7079 18.0419C23.2863 17.0245 22.6671 16.1007 21.8861 15.3243C21.1097 14.5431 20.186 13.9238 19.1685 13.5023C18.151 13.0807 17.06 12.8654 15.9586 12.8686ZM22.1207 15.0897L22.2414 15.1966L22.2262 15.2105L22.5038 15.527C23.8977 17.1079 24.6655 19.144 24.6624 21.2517C24.6624 23.5741 23.7559 25.7618 22.1123 27.404C21.306 28.2146 20.347 28.8574 19.2908 29.2951C18.2345 29.7328 17.102 29.9568 15.9586 29.9541C14.8155 29.9566 13.6833 29.7325 12.6273 29.2948C11.5713 28.8571 10.6125 28.2145 9.80632 27.404C8.99588 26.5979 8.35324 25.6391 7.91554 24.5831C7.47785 23.5271 7.25378 22.3948 7.25628 21.2517C7.25628 18.9279 8.16274 16.7402 9.80632 15.098C10.6125 14.2876 11.5713 13.6449 12.6273 13.2072C13.6833 12.7695 14.8155 12.5455 15.9586 12.548C18.0784 12.548 20.0912 13.3115 21.6834 14.7079L21.9999 14.9856L22.0138 14.9689L22.1207 15.0897ZM15.9586 6.67606C16.0475 6.67606 16.1197 6.74825 16.1197 6.8357V3.63184C16.1197 3.67454 16.1027 3.7155 16.0725 3.7457C16.0423 3.7759 16.0013 3.79286 15.9586 3.79286C15.9162 3.7925 15.8756 3.77537 15.8457 3.74521C15.8158 3.71505 15.799 3.6743 15.799 3.63184V6.8357C15.799 6.74825 15.8712 6.67606 15.9586 6.67606ZM29.0587 9.21917C29.0285 9.18897 29.0115 9.14803 29.0115 9.10534C29.0115 9.06265 29.0285 9.02171 29.0587 8.99151L26.796 11.257C26.8261 11.2272 26.8668 11.2105 26.9091 11.2105C26.9515 11.2105 26.9921 11.2272 27.0222 11.257C27.0524 11.2872 27.0694 11.3281 27.0694 11.3708C27.0694 11.4135 27.0524 11.4544 27.0222 11.4846L29.2877 9.21917C29.2576 9.24892 29.2169 9.26561 29.1746 9.26561C29.1322 9.26561 29.0916 9.24892 29.0615 9.21917H29.0587ZM2.63232 9.21917L4.8978 11.4846C4.87576 11.4621 4.86085 11.4335 4.85491 11.4025C4.84897 11.3715 4.85227 11.3394 4.8644 11.3103C4.87652 11.2812 4.89694 11.2563 4.92312 11.2386C4.94929 11.221 4.98007 11.2115 5.01163 11.2112C5.05327 11.2112 5.09492 11.2278 5.12407 11.257L2.85859 8.99151C2.88877 9.02171 2.90572 9.06265 2.90572 9.10534C2.90572 9.14803 2.88877 9.18897 2.85859 9.21917C2.82846 9.24892 2.78781 9.26561 2.74546 9.26561C2.70311 9.26561 2.66246 9.24892 2.63232 9.21917ZM20.6409 4.22736L19.8122 7.32295C19.8173 7.30261 19.8265 7.2835 19.8391 7.2667C19.8516 7.2499 19.8674 7.23575 19.8854 7.22505C19.9035 7.21434 19.9235 7.20731 19.9442 7.20434C19.965 7.20136 19.9862 7.20252 20.0065 7.20773C20.094 7.23133 20.1439 7.31878 20.1217 7.40346L20.9504 4.31064C20.945 4.33097 20.9356 4.35002 20.9227 4.36671C20.9099 4.38339 20.8939 4.39739 20.8757 4.40789C20.8574 4.4184 20.8373 4.42521 20.8164 4.42793C20.7956 4.43066 20.7743 4.42925 20.754 4.42378C20.7337 4.41831 20.7146 4.40889 20.698 4.39606C20.6813 4.38323 20.6673 4.36724 20.6568 4.349C20.6463 4.33076 20.6395 4.31063 20.6367 4.28976C20.634 4.26889 20.6354 4.24768 20.6409 4.22736ZM10.9682 4.31064L11.7969 7.40485C11.7915 7.38452 11.7901 7.36332 11.7928 7.34245C11.7955 7.32157 11.8023 7.30144 11.8128 7.2832C11.8233 7.26496 11.8373 7.24897 11.854 7.23614C11.8707 7.22331 11.8897 7.21389 11.9101 7.20842C11.9304 7.20295 11.9516 7.20154 11.9725 7.20427C11.9933 7.20699 12.0135 7.2138 12.0317 7.22431C12.05 7.23482 12.0659 7.24881 12.0788 7.2655C12.0916 7.28218 12.101 7.30123 12.1065 7.32156L11.2778 4.22874C11.2844 4.26822 11.2761 4.30876 11.2545 4.34245C11.2329 4.37614 11.1995 4.40057 11.1608 4.41097C11.1222 4.42137 11.081 4.417 11.0454 4.39871C11.0098 4.38042 10.9823 4.34952 10.9682 4.31203V4.31064ZM25.1649 6.05556L23.5616 8.83048C23.5827 8.79367 23.6177 8.76677 23.6587 8.75571C23.6997 8.74464 23.7434 8.75032 23.7802 8.77149C23.817 8.79266 23.8439 8.82759 23.855 8.86859C23.8661 8.90959 23.8604 8.95331 23.8392 8.99012L25.4411 6.21658C25.4199 6.25319 25.3851 6.2799 25.3442 6.29083C25.3034 6.30176 25.2598 6.29603 25.2232 6.27489C25.1865 6.25343 25.1598 6.21833 25.1488 6.17724C25.1379 6.13615 25.1437 6.09241 25.1649 6.05556ZM8.35709 8.83048L6.75515 6.05556C6.77651 6.09237 6.78236 6.13617 6.77142 6.1773C6.76049 6.21843 6.73367 6.25353 6.69685 6.27489C6.66003 6.29624 6.61624 6.30209 6.57511 6.29116C6.53398 6.28023 6.49887 6.2534 6.47752 6.21658L8.07807 8.99012C8.06199 8.95375 8.05994 8.91272 8.07232 8.87493C8.08469 8.83713 8.11061 8.80526 8.14508 8.78544C8.17956 8.76561 8.22014 8.75925 8.25903 8.76757C8.29792 8.77588 8.33374 8.7983 8.35709 8.83048Z" stroke="#9A1A1E" stroke-width="1.5"/>
</svg>
