<svg width="32" height="33" viewBox="0 0 32 33" fill="none" xmlns="http://www.w3.org/2000/svg">
<path d="M3 10.9985H27.6939M10.1232 0V3.82557M21.5204 0V3.82557M8.26316 3.82557H22.7368C25.6436 3.82557 28 6.19841 28 9.12545V23.7001C28 26.6272 25.6436 29 22.7368 29H8.26316C5.3564 29 3 26.6272 3 23.7001V9.12545C3 6.19841 5.3564 3.82557 8.26316 3.82557ZM20.1458 19.1279H22.8951C23.4473 19.1279 23.8949 19.5786 23.8949 20.1346V22.9031C23.8949 23.4591 23.4473 23.9098 22.8951 23.9098H20.1458C19.5936 23.9098 19.146 23.4591 19.146 22.9031V20.1346C19.146 19.5786 19.5936 19.1279 20.1458 19.1279Z" stroke="white" stroke-width="1.5"/>
</svg>
