<svg width="32" height="33" viewBox="0 0 32 33" fill="none" xmlns="http://www.w3.org/2000/svg">
<path d="M15.5013 19.0601C17.1397 19.0601 18.4679 17.732 18.4679 16.0935C18.4679 14.4551 17.1397 13.127 15.5013 13.127C13.8629 13.127 12.5347 14.4551 12.5347 16.0935C12.5347 17.732 13.8629 19.0601 15.5013 19.0601Z" stroke="#9A1A1E" stroke-width="1.5"/>
<path d="M5.71023 7.01543L6.08106 6.37168C5.93547 6.28751 5.7656 6.25531 5.5993 6.28038C5.43301 6.30544 5.28017 6.38628 5.16586 6.50963L5.71023 7.01543ZM2.74512 12.1536L2.03611 11.934C1.98676 12.0946 1.99334 12.2671 2.05477 12.4233C2.11621 12.5796 2.22886 12.7104 2.3743 12.7944L2.74512 12.1536ZM2.74215 20.0314L2.37133 19.3891C2.22558 19.4731 2.11271 19.6042 2.05126 19.7608C1.9898 19.9174 1.98341 20.0902 2.03314 20.2509L2.74215 20.0314ZM5.70875 25.1695L5.16438 25.6738C5.27869 25.7972 5.43153 25.878 5.59782 25.9031C5.76411 25.9282 5.93399 25.896 6.07957 25.8118L5.70875 25.1695ZM12.5319 29.1077H11.7903C11.7902 29.2761 11.8474 29.4395 11.9526 29.5711C12.0577 29.7026 12.2045 29.7945 12.3688 29.8315L12.5319 29.1077ZM18.4666 29.1106L18.6312 29.8345C18.7952 29.7971 18.9417 29.7052 19.0465 29.5736C19.1514 29.4421 19.2084 29.2788 19.2082 29.1106H18.4681H18.4666ZM25.2912 25.171L24.9204 25.8133C25.066 25.8974 25.2359 25.9296 25.4022 25.9046C25.5685 25.8795 25.7213 25.7987 25.8356 25.6753L25.2912 25.171ZM28.2549 20.0299L28.9639 20.2494C29.0132 20.0889 29.0067 19.9164 28.9452 19.7601C28.8838 19.6038 28.7711 19.473 28.6257 19.3891L28.2549 20.0299ZM28.2578 12.1521L28.6287 12.7944C28.7744 12.7104 28.8873 12.5793 28.9487 12.4227C29.0102 12.2661 29.0166 12.0933 28.9669 11.9326L28.2578 12.1521ZM25.2912 7.01247L25.8356 6.50815C25.7213 6.3848 25.5685 6.30396 25.4022 6.27889C25.2359 6.25383 25.066 6.28602 24.9204 6.3702L25.2912 7.01247ZM18.4681 3.07728H19.2097C19.2096 2.90933 19.1524 2.74641 19.0476 2.61518C18.9427 2.48396 18.7965 2.3922 18.6327 2.35491L18.4681 3.07728ZM12.5349 3.07431L12.3702 2.35046C12.206 2.38751 12.0592 2.47937 11.954 2.61092C11.8489 2.74248 11.7917 2.9059 11.7918 3.07431H12.5334H12.5349ZM3.45414 12.3731C4.01066 10.5651 4.96734 8.90579 6.25312 7.51827L5.16586 6.50963C3.72834 8.06025 2.6586 9.91331 2.03611 11.934L3.45414 12.3731ZM4.58144 22.3972C4.11005 21.5807 3.73143 20.714 3.45265 19.8133L2.03462 20.2524C2.3471 21.2586 2.77099 22.2268 3.29839 23.1389L4.58144 22.3972ZM6.2546 24.6667C5.61459 23.9748 5.05241 23.2136 4.58144 22.3972L3.29839 23.1389C3.82443 24.0513 4.45081 24.9021 5.16586 25.6753L6.2546 24.6667ZM18.3034 28.3898C16.459 28.8097 14.5436 28.8087 12.6995 28.3868L12.3702 29.8315C14.4309 30.3032 16.5714 30.3047 18.6327 29.836L18.3034 28.3898ZM27.5488 19.8133C26.9923 21.6213 26.0356 23.2806 24.7498 24.6682L25.8371 25.6768C27.2746 24.1262 28.3443 22.2716 28.9669 20.2509L27.5488 19.8133ZM26.4215 9.7892C26.9021 10.6243 27.2774 11.4905 27.5518 12.3731L28.9683 11.934C28.656 10.9278 28.2321 9.95961 27.7046 9.04755L26.4215 9.7892ZM24.7484 7.51975C25.3889 8.21122 25.9511 8.97248 26.4215 9.7892L27.7046 9.04755C27.1786 8.1351 26.5522 7.28434 25.8371 6.51111L24.7484 7.51975ZM12.6995 3.79668C14.544 3.37676 16.4594 3.37777 18.3034 3.79964L18.6327 2.35491C16.572 1.8832 14.4316 1.88168 12.3702 2.35046L12.6995 3.79668ZM13.2765 5.81693V3.07283H11.7932V5.81693H13.2765ZM8.45582 7.74225L6.08106 6.37168L5.33941 7.65473L7.71269 9.02679L8.45582 7.74225ZM4.74757 18.0185L2.37133 19.3891L3.11446 20.6736L5.48774 19.3031L4.74757 18.0185ZM5.48922 12.8804L3.11595 11.5113L2.3743 12.7958L4.74757 14.1649L5.48922 12.8804ZM13.2765 29.1077V26.368H11.7932V29.1077H13.2765ZM7.71417 23.1567L5.33941 24.5272L6.08106 25.8118L8.45434 24.4412L7.71417 23.1567ZM25.6636 24.5287L23.2888 23.1567L22.5471 24.4427L24.9204 25.8133L25.6636 24.5287ZM19.2097 29.1121V26.368H17.7264V29.1121H19.2097ZM27.8885 11.5098L25.5137 12.8804L26.2554 14.1649L28.6287 12.7944L27.8885 11.5098ZM28.6272 19.3876L26.2554 18.0215L25.5137 19.306L27.887 20.6751L28.6287 19.3906L28.6272 19.3876ZM19.2097 5.81693V3.07728H17.7264V5.81693H19.2097ZM24.9219 6.37168L22.5471 7.74373L23.2888 9.02827L25.6636 7.65622L24.9219 6.37168ZM17.7264 5.81693C17.7264 8.67079 20.8161 10.4552 23.2888 9.02827L22.5471 7.74373C22.2088 7.93907 21.825 8.04188 21.4343 8.04182C21.0436 8.04176 20.6599 7.93882 20.3216 7.74338C19.9833 7.54793 19.7025 7.26685 19.5073 6.92842C19.3121 6.58999 19.2095 6.20761 19.2097 5.81693H17.7264ZM25.5137 12.8819C23.0411 14.3088 23.0411 17.8776 25.5137 19.3046L26.2554 18.02C25.9172 17.8247 25.6363 17.5439 25.4411 17.2056C25.2458 16.8674 25.143 16.4838 25.143 16.0932C25.143 15.7027 25.2458 15.319 25.4411 14.9808C25.6363 14.6426 25.9172 14.3617 26.2554 14.1664L25.5137 12.8819ZM23.2888 23.1582C20.8161 21.7312 17.7264 23.5127 17.7264 26.368H19.2097C19.2097 25.9775 19.3126 25.5953 19.5078 25.257C19.7031 24.9188 19.984 24.638 20.3222 24.4427C20.6605 24.2474 21.0441 24.1446 21.4347 24.1446C21.8252 24.1446 22.2089 24.2474 22.5471 24.4427L23.2888 23.1582ZM13.2765 26.368C13.2765 23.5142 10.1868 21.7312 7.71417 23.1582L8.45582 24.4427C8.79416 24.2474 9.17797 24.1446 9.56865 24.1446C9.95933 24.1447 10.3431 24.2476 10.6814 24.4431C11.0197 24.6385 11.3005 24.9196 11.4957 25.258C11.6909 25.5964 11.7935 25.9803 11.7932 26.371H13.2765V26.368ZM5.48922 19.3046C7.96188 17.8776 7.96188 14.3088 5.48922 12.8819L4.74757 14.1664C6.23087 15.0223 6.23087 17.1612 4.74757 18.0185L5.48922 19.3046ZM11.7932 5.81693C11.793 6.20736 11.69 6.59084 11.4946 6.92886C11.2992 7.26688 11.0183 7.54754 10.6801 7.74263C10.3419 7.93773 9.95834 8.0404 9.56791 8.04034C9.17748 8.04027 8.79394 7.93746 8.45582 7.74225L7.71417 9.02827C10.1868 10.4552 13.2765 8.67228 13.2765 5.81693H11.7932Z" fill="#9A1A1E"/>
</svg>
