<svg width="25" height="24" viewBox="0 0 25 24" fill="none" xmlns="http://www.w3.org/2000/svg">
<g id="Google" clip-path="url(#clip0_381_20822)">
<g id="Group">
<g id="Clip path group">
<mask id="mask0_381_20822" style="mask-type:luminance" maskUnits="userSpaceOnUse" x="0" y="0" width="25" height="24">
<g id="B">
<path id="Vector" d="M24.0568 9.81819H12.875V14.4546H19.3114C18.7114 17.4 16.2023 19.0909 12.875 19.0909C8.94773 19.0909 5.78409 15.9273 5.78409 12C5.78409 8.07273 8.94773 4.90909 12.875 4.90909C14.5659 4.90909 16.0932 5.50909 17.2932 6.49091L20.7841 3C18.6568 1.14545 15.9296 0 12.875 0C6.22046 0 0.875 5.34546 0.875 12C0.875 18.6546 6.22046 24 12.875 24C18.875 24 24.3296 19.6364 24.3296 12C24.3296 11.2909 24.2205 10.5273 24.0568 9.81819Z" fill="white"/>
</g>
</mask>
<g mask="url(#mask0_381_20822)">
<path id="Vector_2" d="M-0.215942 19.0909V4.90906L9.05679 12L-0.215942 19.0909Z" fill="#FBBC05"/>
</g>
</g>
<g id="Clip path group_2">
<mask id="mask1_381_20822" style="mask-type:luminance" maskUnits="userSpaceOnUse" x="0" y="0" width="25" height="24">
<g id="B_2">
<path id="Vector_3" d="M24.0568 9.81819H12.875V14.4546H19.3114C18.7114 17.4 16.2023 19.0909 12.875 19.0909C8.94773 19.0909 5.78409 15.9273 5.78409 12C5.78409 8.07273 8.94773 4.90909 12.875 4.90909C14.5659 4.90909 16.0932 5.50909 17.2932 6.49091L20.7841 3C18.6568 1.14545 15.9296 0 12.875 0C6.22046 0 0.875 5.34546 0.875 12C0.875 18.6546 6.22046 24 12.875 24C18.875 24 24.3296 19.6364 24.3296 12C24.3296 11.2909 24.2205 10.5273 24.0568 9.81819Z" fill="white"/>
</g>
</mask>
<g mask="url(#mask1_381_20822)">
<path id="Vector_4" d="M-0.215942 4.90906L9.05679 12L12.875 8.6727L25.9659 6.54542V-1.09094H-0.215942V4.90906Z" fill="#BF0B00"/>
</g>
</g>
<g id="Clip path group_3">
<mask id="mask2_381_20822" style="mask-type:luminance" maskUnits="userSpaceOnUse" x="0" y="0" width="25" height="24">
<g id="B_3">
<path id="Vector_5" d="M24.0568 9.81819H12.875V14.4546H19.3114C18.7114 17.4 16.2023 19.0909 12.875 19.0909C8.94773 19.0909 5.78409 15.9273 5.78409 12C5.78409 8.07273 8.94773 4.90909 12.875 4.90909C14.5659 4.90909 16.0932 5.50909 17.2932 6.49091L20.7841 3C18.6568 1.14545 15.9296 0 12.875 0C6.22046 0 0.875 5.34546 0.875 12C0.875 18.6546 6.22046 24 12.875 24C18.875 24 24.3296 19.6364 24.3296 12C24.3296 11.2909 24.2205 10.5273 24.0568 9.81819Z" fill="white"/>
</g>
</mask>
<g mask="url(#mask2_381_20822)">
<path id="Vector_6" d="M-0.215942 19.0909L16.1477 6.54542L20.4568 7.09088L25.9659 -1.09094V25.0909H-0.215942V19.0909Z" fill="#34A853"/>
</g>
</g>
<g id="Clip path group_4">
<mask id="mask3_381_20822" style="mask-type:luminance" maskUnits="userSpaceOnUse" x="0" y="0" width="25" height="24">
<g id="B_4">
<path id="Vector_7" d="M24.0568 9.81819H12.875V14.4546H19.3114C18.7114 17.4 16.2023 19.0909 12.875 19.0909C8.94773 19.0909 5.78409 15.9273 5.78409 12C5.78409 8.07273 8.94773 4.90909 12.875 4.90909C14.5659 4.90909 16.0932 5.50909 17.2932 6.49091L20.7841 3C18.6568 1.14545 15.9296 0 12.875 0C6.22046 0 0.875 5.34546 0.875 12C0.875 18.6546 6.22046 24 12.875 24C18.875 24 24.3296 19.6364 24.3296 12C24.3296 11.2909 24.2205 10.5273 24.0568 9.81819Z" fill="white"/>
</g>
</mask>
<g mask="url(#mask3_381_20822)">
<path id="Vector_8" d="M25.9659 25.0909L9.05682 12L6.875 10.3636L25.9659 4.90906V25.0909Z" fill="#4285F4"/>
</g>
</g>
</g>
</g>
<defs>
<clipPath id="clip0_381_20822">
<rect width="24" height="24" fill="white" transform="translate(0.5)"/>
</clipPath>
</defs>
</svg>
