<svg width="40" height="38" viewBox="0 0 40 38" fill="none" xmlns="http://www.w3.org/2000/svg">
<path d="M21.5314 0.5V8.14037C21.5314 8.65545 21.9954 9.08469 22.5522 9.08469H31.6474C34.3388 9.08469 36.5662 11.145 36.5662 13.6346V21.6183C36.5662 24.1079 34.3388 26.1682 31.6474 26.1682H22.7379C20.0464 26.1682 17.8191 24.1937 17.8191 21.7042V19.558V19.1288V16.4675C17.8191 15.9524 17.355 15.609 16.7982 15.609H8.25989C7.70305 15.609 7.23901 16.0383 7.23901 16.5534V24.1937C7.23901 24.7088 7.70305 25.1381 8.25989 25.1381H17.0766C19.768 25.1381 21.9954 27.1984 21.9954 29.6879V37.5H40V0.5H21.5314Z" fill="white"/>
<path d="M18.0974 29.6879C18.0974 29.1729 17.6334 28.7436 17.0766 28.7436H8.25986C5.56844 28.7436 3.34107 26.6833 3.34107 24.1937V16.5534C3.34107 14.0638 5.56844 12.0035 8.25986 12.0035H16.7981C19.4896 12.0035 21.7169 13.978 21.7169 16.4675V18.5278V18.9571V21.6183C21.7169 22.1334 22.181 22.4768 22.7378 22.4768H31.6473C32.2042 22.4768 32.6682 22.0476 32.6682 21.5325V13.5487C32.6682 13.0336 32.2042 12.6044 31.6473 12.6044H22.5522C19.8608 12.6044 17.6334 10.5441 17.6334 8.05452V0.5H0V37.5H18.0974V29.6879Z" fill="white"/>
</svg>
