<svg width="368" height="60" viewBox="0 0 368 60" fill="none" xmlns="http://www.w3.org/2000/svg">
<g clip-path="url(#clip0_197_24573)">
<path d="M204.243 15.7307C203.684 15.5914 203.126 15.5914 202.428 15.5914H188.048C183.442 15.5914 179.812 19.3501 179.812 23.8049V36.3339C179.812 40.9279 183.581 44.5474 188.048 44.5474H202.428C207.035 44.5474 210.665 40.7887 210.665 36.3339V23.8049V0.556641H204.103V15.7307H204.243ZM204.243 36.3339C204.243 37.3084 203.405 38.1437 202.428 38.1437H188.048C187.071 38.1437 186.234 37.3084 186.234 36.3339V23.8049C186.234 22.8304 187.071 21.9952 188.048 21.9952H202.428C203.405 21.9952 204.243 22.8304 204.243 23.8049V36.3339Z" fill="#FF3300"/>
<path d="M315.508 15.592H301.129C300.571 15.592 299.873 15.7312 299.314 15.7312V0.417969H292.753V23.8054V33.8286V36.4737C292.753 41.0676 296.522 44.6871 300.989 44.6871H315.508C320.115 44.6871 323.745 40.9284 323.745 36.4737V23.9447C323.745 19.3507 319.976 15.592 315.508 15.592ZM317.184 36.3344C317.184 37.3089 316.346 38.1442 315.369 38.1442H300.989C300.012 38.1442 299.175 37.3089 299.175 36.3344V33.6894V23.6662C299.175 22.6918 300.012 21.8565 300.989 21.8565H315.508C316.486 21.8565 317.323 22.6918 317.323 23.6662V36.3344H317.184Z" fill="#FF3300"/>
<path d="M89.9059 15.5918H75.5265C70.9195 15.5918 67.2898 19.3505 67.2898 23.8053V36.3343C67.2898 40.9282 71.0591 44.5477 75.5265 44.5477H89.9059C90.4643 44.5477 91.1623 44.4085 91.7207 44.4085V59.7217H98.2822V36.3343V23.8053C98.1426 19.3505 94.3733 15.5918 89.9059 15.5918ZM89.9059 38.144H75.5265C74.5493 38.144 73.7116 37.3087 73.7116 36.3343V23.8053C73.7116 22.8308 74.5493 21.9955 75.5265 21.9955H89.9059C90.8831 21.9955 91.7207 22.8308 91.7207 23.8053V36.3343C91.5811 37.3087 90.8831 38.144 89.9059 38.144Z" fill="#FF3300"/>
<path d="M129.275 36.3341C129.275 37.3086 128.437 38.1438 127.46 38.1438H113.22C112.243 38.1438 111.405 37.3086 111.405 36.3341V17.4014H104.844V36.4733C104.844 41.0673 108.613 44.6867 113.08 44.6867H127.46C132.067 44.6867 135.697 40.9281 135.697 36.4733V17.4014H129.135V36.3341H129.275Z" fill="#FF3300"/>
<path d="M277.815 15.5918H263.435C258.828 15.5918 255.199 19.3505 255.199 23.8053V36.3343C255.199 40.9282 258.968 44.5477 263.435 44.5477H277.815C282.422 44.5477 286.052 40.789 286.052 36.3343V23.8053C286.052 19.2113 282.422 15.5918 277.815 15.5918ZM279.63 36.3343C279.63 37.3087 278.792 38.144 277.815 38.144H263.435C262.458 38.144 261.621 37.3087 261.621 36.3343V23.8053C261.621 22.8308 262.458 21.9955 263.435 21.9955H277.815C278.792 21.9955 279.63 22.8308 279.63 23.8053V36.3343Z" fill="#FF3300"/>
<path d="M164.734 15.5918H153.287V22.1347H164.734C165.712 22.1347 166.549 22.97 166.549 23.9445H150.495C145.888 23.9445 142.258 27.7032 142.258 32.1579V36.4735C142.258 41.0674 146.027 44.6869 150.495 44.6869H164.734C169.341 44.6869 172.971 40.9282 172.971 36.4735V23.9445C172.971 19.2113 169.202 15.5918 164.734 15.5918ZM166.41 36.3343C166.41 37.3087 165.572 38.144 164.595 38.144H150.215C149.238 38.144 148.4 37.3087 148.4 36.3343V32.0187C148.4 31.0442 149.238 30.209 150.215 30.209H166.27V36.3343H166.41Z" fill="#FF3300"/>
<path d="M240.121 15.5918H225.742C221.135 15.5918 217.505 19.3505 217.505 23.8053V44.4085H224.067V23.8053C224.067 22.8308 224.904 21.9955 225.882 21.9955H240.121C241.238 21.9955 241.936 22.5524 241.936 22.97V27.1463H248.498V22.97C248.358 18.9329 244.728 15.5918 240.121 15.5918Z" fill="#FF3300"/>
<path d="M337.147 15.5918H330.586V44.4085H337.147V15.5918Z" fill="#FF3300"/>
<path d="M361.578 32.7145V36.8909C361.578 37.1693 360.88 37.8653 359.763 37.8653H353.481C352.504 37.8653 351.666 37.0301 351.666 36.0556V14.0602H356.413V7.65651H351.806V0.27832H345.244V7.65651H340.498V14.1994H345.244V36.1948C345.244 40.7888 349.014 44.4082 353.481 44.4082H359.763C364.37 44.4082 368 41.0672 368 37.0301V32.8537H361.578V32.7145Z" fill="#FF3300"/>
<path d="M32.3884 0V12.3898C32.3884 13.2251 33.0864 13.9211 33.9241 13.9211H47.6054C51.654 13.9211 55.0045 17.2622 55.0045 21.2993V34.2459C55.0045 38.2831 51.654 41.6241 47.6054 41.6241H34.2033C30.1547 41.6241 26.8042 38.4223 26.8042 34.3852V30.9049V30.2088V25.8933C26.8042 25.058 26.1062 24.5012 25.2685 24.5012H12.4248C11.5872 24.5012 10.8892 25.1972 10.8892 26.0325V38.4223C10.8892 39.2575 11.5872 39.9536 12.4248 39.9536H25.6873C29.7359 39.9536 33.0864 43.2947 33.0864 47.3318V60H60.1699V0H32.3884Z" fill="#FF3300"/>
<path d="M27.2231 47.3318C27.2231 46.4965 26.525 45.8005 25.6874 45.8005H12.4249C8.37633 45.8005 5.0258 42.4594 5.0258 38.4223V26.0325C5.0258 21.9954 8.37633 18.6543 12.4249 18.6543H25.2686C29.3171 18.6543 32.6677 21.8561 32.6677 25.8933V29.2343V29.9304V34.2459C32.6677 35.0812 33.3657 35.6381 34.2033 35.6381H47.6055C48.4431 35.6381 49.1411 34.942 49.1411 34.1067V21.1601C49.1411 20.3248 48.4431 19.6288 47.6055 19.6288H33.9241C29.8756 19.6288 26.525 16.2877 26.525 12.2506V0H0V60H27.2231V47.3318Z" fill="#FF3300"/>
</g>
<defs>
<clipPath id="clip0_197_24573">
<rect width="368" height="60" fill="white"/>
</clipPath>
</defs>
</svg>
