<svg width="75" height="75" viewBox="0 0 75 75" fill="none" xmlns="http://www.w3.org/2000/svg">
<g filter="url(#filter0_b_510_42127)">
<circle cx="37.5" cy="37.5" r="37.5" fill="white" fill-opacity="0.2"/>
<circle cx="37.5" cy="37.5" r="37" stroke="white" stroke-opacity="0.46"/>
</g>
<path d="M39.2038 21V27.8144C39.2038 28.2738 39.6176 28.6566 40.1143 28.6566H48.2262C50.6266 28.6566 52.6132 30.4942 52.6132 32.7146V39.8353C52.6132 42.0557 50.6266 43.8933 48.2262 43.8933H40.2798C37.8794 43.8933 35.8928 42.1323 35.8928 39.9118V37.9977V37.6149V35.2413C35.8928 34.7819 35.4789 34.4756 34.9823 34.4756H27.3671C26.8704 34.4756 26.4565 34.8585 26.4565 35.3179V42.1323C26.4565 42.5916 26.8704 42.9745 27.3671 42.9745H35.2306C37.6311 42.9745 39.6176 44.8121 39.6176 47.0325V54H55.6758V21H39.2038Z" fill="white"/>
<path d="M36.141 47.0325C36.141 46.5731 35.7271 46.1903 35.2304 46.1903H27.3669C24.9665 46.1903 22.9799 44.3527 22.9799 42.1323V35.3179C22.9799 33.0974 24.9665 31.2599 27.3669 31.2599H34.9821C37.3826 31.2599 39.3692 33.0209 39.3692 35.2413V37.0789V37.4617V39.8353C39.3692 40.2947 39.783 40.6009 40.2797 40.6009H48.226C48.7226 40.6009 49.1365 40.2181 49.1365 39.7587V32.6381C49.1365 32.1787 48.7226 31.7958 48.226 31.7958H40.1141C37.7137 31.7958 35.7271 29.9582 35.7271 27.7378V21H20V54H36.141V47.0325Z" fill="white"/>
<defs>
<filter id="filter0_b_510_42127" x="-6.4" y="-6.4" width="87.8" height="87.8" filterUnits="userSpaceOnUse" color-interpolation-filters="sRGB">
<feFlood flood-opacity="0" result="BackgroundImageFix"/>
<feGaussianBlur in="BackgroundImageFix" stdDeviation="3.2"/>
<feComposite in2="SourceAlpha" operator="in" result="effect1_backgroundBlur_510_42127"/>
<feBlend mode="normal" in="SourceGraphic" in2="effect1_backgroundBlur_510_42127" result="shape"/>
</filter>
</defs>
</svg>
