<svg width="50" height="50" viewBox="0 0 50 50" fill="none" xmlns="http://www.w3.org/2000/svg">
<path d="M26.9141 0V10.2957C26.9141 10.9898 27.4941 11.5682 28.1903 11.5682H39.5591C42.9235 11.5682 45.7077 14.3445 45.7077 17.6993V28.4577C45.7077 31.8125 42.9235 34.5888 39.5591 34.5888H28.4223C25.058 34.5888 22.2738 31.9282 22.2738 28.5734V25.6814V25.1029V21.5168C22.2738 20.8227 21.6937 20.36 20.9976 20.36H10.3248C9.62873 20.36 9.04871 20.9384 9.04871 21.6325V31.9282C9.04871 32.6222 9.62873 33.2007 10.3248 33.2007H21.3456C24.7099 33.2007 27.4941 35.977 27.4941 39.3318V49.8588H50V0H26.9141Z" fill="#E72B23"/>
<path d="M22.6219 39.3318C22.6219 38.6377 22.0418 38.0593 21.3457 38.0593H10.3248C6.96056 38.0593 4.17634 35.2829 4.17634 31.9282V21.6325C4.17634 18.2777 6.96056 15.5014 10.3248 15.5014H20.9977C24.3619 15.5014 27.1462 18.162 27.1462 21.5168V24.2931V24.8716V28.4577C27.1462 29.1518 27.7262 29.6146 28.4223 29.6146H39.5592C40.2553 29.6146 40.8353 29.0361 40.8353 28.342V17.5836C40.8353 16.8895 40.2553 16.3111 39.5592 16.3111H28.1903C24.826 16.3111 22.0418 13.5348 22.0418 10.18V0H0V49.8588H22.6219V39.3318Z" fill="#E72B23"/>
</svg>
