<svg width="368" height="60" viewBox="0 0 368 60" fill="none" xmlns="http://www.w3.org/2000/svg">
<path d="M204.243 15.7309C203.684 15.5917 203.126 15.5917 202.428 15.5917H188.048C183.442 15.5917 179.812 19.3504 179.812 23.8051V36.3341C179.812 40.9281 183.581 44.5476 188.048 44.5476H202.428C207.035 44.5476 210.665 40.7889 210.665 36.3341V23.8051V0.556885H204.103V15.7309H204.243ZM204.243 36.3341C204.243 37.3086 203.405 38.1439 202.428 38.1439H188.048C187.071 38.1439 186.234 37.3086 186.234 36.3341V23.8051C186.234 22.8307 187.071 21.9954 188.048 21.9954H202.428C203.405 21.9954 204.243 22.8307 204.243 23.8051V36.3341Z" fill="white"/>
<path d="M315.508 15.5916H301.129C300.571 15.5916 299.873 15.7308 299.314 15.7308V0.417603H292.753V23.8051V33.8283V36.4733C292.753 41.0673 296.522 44.6867 300.989 44.6867H315.508C320.115 44.6867 323.745 40.928 323.745 36.4733V23.9443C323.745 19.3503 319.976 15.5916 315.508 15.5916ZM317.184 36.3341C317.184 37.3086 316.346 38.1438 315.369 38.1438H300.989C300.012 38.1438 299.175 37.3086 299.175 36.3341V33.6891V23.6659C299.175 22.6914 300.012 21.8561 300.989 21.8561H315.508C316.486 21.8561 317.323 22.6914 317.323 23.6659V36.3341H317.184Z" fill="white"/>
<path d="M89.9059 15.5917H75.5265C70.9195 15.5917 67.2898 19.3504 67.2898 23.8051V36.3341C67.2898 40.9281 71.0591 44.5476 75.5265 44.5476H89.9059C90.4643 44.5476 91.1623 44.4084 91.7207 44.4084V59.7216H98.2822V36.3341V23.8051C98.1426 19.3504 94.3733 15.5917 89.9059 15.5917ZM89.9059 38.1439H75.5265C74.5493 38.1439 73.7116 37.3086 73.7116 36.3341V23.8051C73.7116 22.8307 74.5493 21.9954 75.5265 21.9954H89.9059C90.8831 21.9954 91.7207 22.8307 91.7207 23.8051V36.3341C91.5811 37.3086 90.8831 38.1439 89.9059 38.1439Z" fill="white"/>
<path d="M129.275 36.3341C129.275 37.3086 128.437 38.1438 127.46 38.1438H113.22C112.243 38.1438 111.405 37.3086 111.405 36.3341V17.4014H104.844V36.4733C104.844 41.0673 108.613 44.6867 113.08 44.6867H127.46C132.067 44.6867 135.697 40.9281 135.697 36.4733V17.4014H129.135V36.3341H129.275Z" fill="white"/>
<path d="M277.815 15.5917H263.435C258.828 15.5917 255.199 19.3504 255.199 23.8051V36.3341C255.199 40.9281 258.968 44.5476 263.435 44.5476H277.815C282.422 44.5476 286.052 40.7889 286.052 36.3341V23.8051C286.052 19.2112 282.422 15.5917 277.815 15.5917ZM279.63 36.3341C279.63 37.3086 278.792 38.1439 277.815 38.1439H263.435C262.458 38.1439 261.621 37.3086 261.621 36.3341V23.8051C261.621 22.8307 262.458 21.9954 263.435 21.9954H277.815C278.792 21.9954 279.63 22.8307 279.63 23.8051V36.3341Z" fill="white"/>
<path d="M164.734 15.5917H153.287V22.1346H164.734C165.712 22.1346 166.549 22.9699 166.549 23.9443H150.495C145.888 23.9443 142.258 27.703 142.258 32.1578V36.4733C142.258 41.0673 146.027 44.6868 150.495 44.6868H164.734C169.341 44.6868 172.971 40.9281 172.971 36.4733V23.9443C172.971 19.2112 169.202 15.5917 164.734 15.5917ZM166.41 36.3341C166.41 37.3086 165.572 38.1439 164.595 38.1439H150.215C149.238 38.1439 148.4 37.3086 148.4 36.3341V32.0186C148.4 31.0441 149.238 30.2088 150.215 30.2088H166.27V36.3341H166.41Z" fill="white"/>
<path d="M240.121 15.5917H225.742C221.135 15.5917 217.505 19.3504 217.505 23.8051V44.4084H224.067V23.8051C224.067 22.8307 224.904 21.9954 225.882 21.9954H240.121C241.238 21.9954 241.936 22.5522 241.936 22.9699V27.1462H248.498V22.9699C248.358 18.9327 244.728 15.5917 240.121 15.5917Z" fill="white"/>
<path d="M337.147 15.5917H330.586V44.4084H337.147V15.5917Z" fill="white"/>
<path d="M361.578 32.7146V36.891C361.578 37.1694 360.88 37.8655 359.763 37.8655H353.481C352.504 37.8655 351.666 37.0302 351.666 36.0557V14.0603H356.413V7.65663H351.806V0.278442H345.244V7.65663H340.498V14.1996H345.244V36.1949C345.244 40.7889 349.013 44.4084 353.481 44.4084H359.763C364.37 44.4084 368 41.0673 368 37.0302V32.8538H361.578V32.7146Z" fill="white"/>
<path d="M32.3884 0V12.3898C32.3884 13.2251 33.0864 13.9211 33.9241 13.9211H47.6054C51.654 13.9211 55.0045 17.2622 55.0045 21.2993V34.2459C55.0045 38.2831 51.654 41.6241 47.6054 41.6241H34.2033C30.1547 41.6241 26.8042 38.4223 26.8042 34.3852V30.9049V30.2088V25.8933C26.8042 25.058 26.1062 24.5012 25.2685 24.5012H12.4248C11.5872 24.5012 10.8892 25.1972 10.8892 26.0325V38.4223C10.8892 39.2575 11.5872 39.9536 12.4248 39.9536H25.6873C29.7359 39.9536 33.0864 43.2947 33.0864 47.3318V60H60.1699V0H32.3884Z" fill="white"/>
<path d="M27.2231 47.3318C27.2231 46.4965 26.525 45.8005 25.6874 45.8005H12.4249C8.37633 45.8005 5.0258 42.4594 5.0258 38.4223V26.0325C5.0258 21.9954 8.37633 18.6543 12.4249 18.6543H25.2686C29.3171 18.6543 32.6677 21.8561 32.6677 25.8933V29.2343V29.9304V34.2459C32.6677 35.0812 33.3657 35.6381 34.2033 35.6381H47.6055C48.4431 35.6381 49.1411 34.942 49.1411 34.1067V21.1601C49.1411 20.3248 48.4431 19.6288 47.6055 19.6288H33.9241C29.8756 19.6288 26.525 16.2877 26.525 12.2506V0H0V60H27.2231V47.3318Z" fill="white"/>
</svg>
