<svg width="264" height="44" viewBox="0 0 264 44" fill="none" xmlns="http://www.w3.org/2000/svg">
<g clip-path="url(#clip0_387_29680)">
<path d="M146.3 11.3C145.9 11.2 145.5 11.2 145 11.2H134.7C131.4 11.2 128.8 13.9 128.8 17.1V26.1C128.8 29.4 131.5 32 134.7 32H145C148.3 32 150.9 29.3 150.9 26.1V17.1V0.400024H146.2V11.3H146.3ZM146.3 26.1C146.3 26.8 145.7 27.4 145 27.4H134.7C134 27.4 133.4 26.8 133.4 26.1V17.1C133.4 16.4 134 15.8 134.7 15.8H145C145.7 15.8 146.3 16.4 146.3 17.1V26.1Z" fill="white"/>
<path d="M226 11.2H215.7C215.3 11.2 214.8 11.3 214.4 11.3V0.299988H209.7V17.1V24.3V26.2C209.7 29.5 212.4 32.1 215.6 32.1H226C229.3 32.1 231.9 29.4 231.9 26.2V17.2C231.9 13.9 229.2 11.2 226 11.2ZM227.2 26.1C227.2 26.8 226.6 27.4 225.9 27.4H215.6C214.9 27.4 214.3 26.8 214.3 26.1V24.2V17C214.3 16.3 214.9 15.7 215.6 15.7H226C226.7 15.7 227.3 16.3 227.3 17V26.1H227.2Z" fill="white"/>
<path d="M64.4 11.2H54.1C50.8 11.2 48.2 13.9 48.2 17.1V26.1C48.2 29.4 50.9 32 54.1 32H64.4C64.8 32 65.3 31.9 65.7 31.9V42.9H70.4V26.1V17.1C70.3 13.9 67.6 11.2 64.4 11.2ZM64.4 27.4H54.1C53.4 27.4 52.8 26.8 52.8 26.1V17.1C52.8 16.4 53.4 15.8 54.1 15.8H64.4C65.1 15.8 65.7 16.4 65.7 17.1V26.1C65.6 26.8 65.1 27.4 64.4 27.4Z" fill="white"/>
<path d="M92.6 26.1C92.6 26.8 92 27.4 91.3 27.4H81.1C80.4 27.4 79.8 26.8 79.8 26.1V12.5H75.1V26.2C75.1 29.5 77.8 32.1 81 32.1H91.3C94.6 32.1 97.2 29.4 97.2 26.2V12.5H92.5V26.1H92.6Z" fill="white"/>
<path d="M199 11.2H188.7C185.4 11.2 182.8 13.9 182.8 17.1V26.1C182.8 29.4 185.5 32 188.7 32H199C202.3 32 204.9 29.3 204.9 26.1V17.1C204.9 13.8 202.3 11.2 199 11.2ZM200.3 26.1C200.3 26.8 199.7 27.4 199 27.4H188.7C188 27.4 187.4 26.8 187.4 26.1V17.1C187.4 16.4 188 15.8 188.7 15.8H199C199.7 15.8 200.3 16.4 200.3 17.1V26.1Z" fill="white"/>
<path d="M118 11.2H109.8V15.9H118C118.7 15.9 119.3 16.5 119.3 17.2H107.8C104.5 17.2 101.9 19.9 101.9 23.1V26.2C101.9 29.5 104.6 32.1 107.8 32.1H118C121.3 32.1 123.9 29.4 123.9 26.2V17.2C123.9 13.8 121.2 11.2 118 11.2ZM119.2 26.1C119.2 26.8 118.6 27.4 117.9 27.4H107.6C106.9 27.4 106.3 26.8 106.3 26.1V23C106.3 22.3 106.9 21.7 107.6 21.7H119.1V26.1H119.2Z" fill="white"/>
<path d="M172 11.2H161.7C158.4 11.2 155.8 13.9 155.8 17.1V31.9H160.5V17.1C160.5 16.4 161.1 15.8 161.8 15.8H172C172.8 15.8 173.3 16.2 173.3 16.5V19.5H178V16.5C177.9 13.6 175.3 11.2 172 11.2Z" fill="white"/>
<path d="M241.5 11.2H236.8V31.9H241.5V11.2Z" fill="white"/>
<path d="M259 23.5V26.5C259 26.7 258.5 27.2 257.7 27.2H253.2C252.5 27.2 251.9 26.6 251.9 25.9V10.1H255.3V5.50001H252V0.200012H247.3V5.50001H243.9V10.2H247.3V26C247.3 29.3 250 31.9 253.2 31.9H257.7C261 31.9 263.6 29.5 263.6 26.6V23.6H259V23.5Z" fill="white"/>
<path d="M23.2 0V8.9C23.2 9.5 23.7 10 24.3 10H34.1C37 10 39.4 12.4 39.4 15.3V24.6C39.4 27.5 37 29.9 34.1 29.9H24.5C21.6 29.9 19.2 27.6 19.2 24.7V22.2V21.7V18.6C19.2 18 18.7 17.6 18.1 17.6H8.89999C8.29999 17.6 7.79999 18.1 7.79999 18.7V27.6C7.79999 28.2 8.29999 28.7 8.89999 28.7H18.4C21.3 28.7 23.7 31.1 23.7 34V43.1H43.1V0H23.2Z" fill="white"/>
<path d="M19.5 34C19.5 33.4 19 32.9 18.4 32.9H8.9C6 32.9 3.6 30.5 3.6 27.6V18.7C3.6 15.8 6 13.4 8.9 13.4H18.1C21 13.4 23.4 15.7 23.4 18.6V21V21.5V24.6C23.4 25.2 23.9 25.6 24.5 25.6H34.1C34.7 25.6 35.2 25.1 35.2 24.5V15.2C35.2 14.6 34.7 14.1 34.1 14.1H24.3C21.4 14.1 19 11.7 19 8.8V0H0V43.1H19.5V34Z" fill="white"/>
</g>
<defs>
<clipPath id="clip0_387_29680">
<rect width="263.6" height="43.1" fill="white"/>
</clipPath>
</defs>
</svg>
