<svg width="24" height="24" viewBox="0 0 24 24" fill="none" xmlns="http://www.w3.org/2000/svg">
<path d="M11.3576 12.2911H11.4829C12.6148 12.2722 13.5087 11.8858 14.1721 11.1392C14.8291 10.3969 15.2134 9.34299 15.3682 8.10687C15.4553 7.4305 15.4688 6.74666 15.4082 6.06739C15.3239 4.26165 14.6206 3.15293 13.5572 2.54435C12.9581 2.20005 12.2547 2.01579 11.4745 2H11.3998C10.7154 2 9.97622 2.15162 9.315 2.52856C8.23577 3.13925 7.52505 4.25007 7.43766 6.09476C7.37917 6.76467 7.39329 7.43894 7.47978 8.10582C7.63456 9.34298 8.01887 10.3969 8.67694 11.1392C9.335 11.8837 10.2268 12.2711 11.3576 12.2911ZM11.3576 12.2911H11.3608H11.3524H11.3576ZM18.2363 15.0487C18.9754 15.3003 19.4145 15.8152 19.6472 16.5659C19.7872 17.0218 19.8304 17.4177 19.8504 18.0916C19.8515 18.1306 19.8515 18.1306 19.8546 18.1643V18.1853V18.1927V18.1979V18.2085C19.8672 18.8392 19.8157 19.6194 19.6788 19.9837C19.6727 19.991 19.6656 19.9974 19.6577 20.0026C19.5303 20.0837 19.3576 20.1827 19.0839 20.3217C18.6375 20.5491 18.1163 20.7765 17.5224 20.9892C15.7535 21.621 13.7151 22 11.4345 22C9.19497 22 7.18602 21.6346 5.43608 21.0208C4.37054 20.6481 3.58191 20.248 3.21655 20.0058C3.19655 19.9921 3.19233 19.9868 3.18918 19.9795C3.04387 19.611 2.98912 18.8371 3.00176 18.2043V18.18C3.00597 18.1874 3.00597 18.1506 3.00597 18.0716C3.02703 17.4135 3.06914 17.0155 3.21129 16.5586C3.44503 15.811 3.8841 15.2972 4.6264 15.0424C4.63166 15.0413 4.63166 15.0413 4.6264 15.0413C6.18891 14.6454 7.74722 13.8189 8.43266 13.304C8.4474 13.2946 8.48531 13.3009 8.50636 13.3303C8.51108 13.3371 8.51439 13.3447 8.51609 13.3527C8.5178 13.3607 8.51787 13.369 8.5163 13.3771C8.51473 13.3852 8.51154 13.3928 8.50694 13.3996C8.50234 13.4064 8.49641 13.4122 8.48952 13.4167C7.92014 13.7931 7.32401 14.1274 6.70589 14.417C6.0394 14.7276 5.35922 14.9803 4.68115 15.155C3.50084 15.573 3.17654 16.4743 3.126 18.0895L3.12495 18.1316L3.12179 18.2158C3.11126 18.676 3.15022 19.3003 3.22392 19.6657L3.27025 19.9026L3.48083 20.0216C5.30973 21.0534 8.03361 21.881 11.4303 21.881C14.8417 21.881 17.5635 21.0545 19.3766 20.0247L19.5861 19.9058L19.6335 19.6699C19.704 19.3151 19.7409 18.7128 19.7346 18.2137L19.7304 18.1548V18.1106C19.6809 16.4785 19.3555 15.5773 18.2216 15.1729C16.6085 14.757 15.2134 14.0179 14.3679 13.4209C14.361 13.4164 14.3551 13.4106 14.3505 13.4039C14.3459 13.3971 14.3426 13.3895 14.341 13.3815C14.3393 13.3734 14.3393 13.3652 14.3408 13.3571C14.3424 13.3491 14.3455 13.3414 14.35 13.3346C14.3546 13.3276 14.3605 13.3216 14.3674 13.317C14.3743 13.3124 14.3821 13.3093 14.3903 13.3078C14.3985 13.3063 14.4069 13.3066 14.415 13.3084C14.4231 13.3103 14.4307 13.3138 14.4374 13.3188C15.1007 13.8157 16.6748 14.6496 18.2279 15.0455C18.2216 15.0445 18.2216 15.0445 18.2363 15.0487ZM18.2363 15.0487C18.2437 15.0508 18.2437 15.0508 18.2363 15.0487ZM7.55559 6.08529L7.55769 6.06423C7.69878 3.2477 9.33606 2.12845 11.3955 2.12845H11.4598C13.5793 2.17584 15.1513 3.33719 15.2871 6.09055C15.2825 6.02943 15.2653 5.96992 15.2366 5.91577L15.2871 6.07686C15.3313 6.38326 15.3503 7.15715 15.2724 7.90892C15.1418 9.18189 14.7775 10.2759 14.0826 11.0571C13.4298 11.7942 12.5548 12.1574 11.444 12.1669H11.3955C10.291 12.1564 9.41187 11.791 8.76643 11.0582C8.07362 10.2801 7.70721 9.1861 7.57454 7.91208C7.49768 7.17399 7.51347 6.36852 7.55559 6.08529ZM20.9075 18.1958V18.1979V18.1874V18.1958Z" stroke="white"/>
</svg>
