<svg width="24" height="24" viewBox="0 0 24 24" fill="none" xmlns="http://www.w3.org/2000/svg">
<path d="M9.28354 6.57729C8.53907 6.5781 7.82534 6.87419 7.29892 7.40061C6.77251 7.92702 6.47641 8.64076 6.47561 9.38522C6.47668 10.1293 6.77276 10.8426 7.29892 11.3688C7.82509 11.895 8.53841 12.1911 9.28252 12.1921C10.027 12.1913 10.7407 11.8952 11.2671 11.3688C11.7935 10.8424 12.0896 10.1287 12.0904 9.3842C12.0894 8.63992 11.7932 7.92644 11.2668 7.40025C10.7404 6.87405 10.0278 6.5781 9.28354 6.57729ZM9.28354 12.5081C8.4551 12.5075 7.66074 12.1783 7.07485 11.5926C6.48896 11.0069 6.15944 10.2126 6.15863 9.3842C6.15944 8.55577 6.48896 7.76151 7.07485 7.17581C7.66074 6.59012 8.4551 6.26085 9.28354 6.26031C10.1118 6.26112 10.9059 6.59051 11.4916 7.17617C12.0772 7.76184 12.4066 8.55594 12.4074 9.3842C12.4066 10.2125 12.0772 11.0066 11.4916 11.5922C10.9059 12.1779 10.1118 12.5073 9.28354 12.5081Z" stroke="white" stroke-width="0.5"/>
<path d="M19.7499 6.46925C19.3891 3.71941 17.739 2.31596 14.8485 2.31596C12.4166 2.31596 11.0264 3.15579 10.3548 4.51542L10.2039 4.8222L9.86147 4.79774C9.66848 4.78362 9.47505 4.77649 9.28154 4.77633C6.39207 4.77633 4.74197 6.17877 4.38117 8.92962C4.25886 9.86832 4.3088 10.8855 4.53405 11.9516C5.43707 16.2343 7.31242 19.4397 9.24893 21.4914C9.25756 21.5002 9.26924 21.5053 9.28154 21.5057C9.29275 21.5057 9.306 21.5006 9.31415 21.4914C10.2773 20.4712 11.3607 18.9577 12.3096 16.9987L12.699 16.1936L13.1933 16.9386C13.7926 17.8447 14.3593 18.5479 14.8169 19.0321C14.825 19.0402 14.8373 19.0463 14.8475 19.0463C14.8587 19.0463 14.8719 19.0402 14.8801 19.0321C16.8166 16.9794 18.6919 13.7729 19.596 9.49223C19.8212 8.42511 19.8712 7.40794 19.7488 6.46925H19.7499ZM8.90545 21.5842C6.96895 19.454 5.11398 16.2323 4.22523 12.0168C3.99285 10.9181 3.93985 9.86628 4.06827 8.88784C4.44945 5.98614 6.25346 4.45936 9.28256 4.45936C10.5301 4.45936 11.5758 4.71926 12.4166 5.24823C13.6743 6.07685 14.2971 7.45075 14.4958 8.97549C14.5128 9.10421 14.5264 9.23335 14.5366 9.36279L14.5397 9.39031C14.5488 9.50956 14.5549 9.63492 14.56 9.77047C14.5734 10.5252 14.4999 11.2789 14.3409 12.0168C13.4511 16.2323 11.5941 19.4571 9.65967 21.5852L9.28256 22L8.90545 21.5842ZM12.3269 4.90781C12.8977 4.17194 13.8364 3.75814 14.8994 3.75814C15.7277 3.75895 16.5218 4.08833 17.1075 4.674C17.6931 5.25967 18.0225 6.05377 18.0233 6.88203C18.0226 7.30835 17.9347 7.73003 17.765 8.12114C17.5954 8.51225 17.3475 8.86453 17.0367 9.15634C16.7259 9.44815 16.3587 9.67332 15.9577 9.81802C15.5567 9.96272 15.1303 10.0239 14.7048 9.99776L14.2553 9.96718L14.2319 9.51669C14.2233 9.32077 14.207 9.12527 14.1829 8.93064C13.9842 7.41711 13.392 6.3184 12.434 5.63451L12.0018 5.32671L12.3269 4.90781ZM19.9068 9.55848C19.0181 13.7719 17.1611 16.9977 15.2266 19.1258L14.8495 19.5406L14.4724 19.1258C13.8099 18.382 13.2125 17.5828 12.6867 16.7368L12.543 16.5075L12.6511 16.2598C13.2577 14.8753 13.7202 13.4319 14.0311 11.9526C14.1554 11.3615 14.2237 10.7713 14.239 10.1792L14.2522 9.65734L14.772 9.6818L14.823 9.68486H14.8271L14.8994 9.68894C15.6437 9.68786 16.3572 9.39164 16.8834 8.86526C17.4096 8.33888 17.7055 7.62529 17.7063 6.88101C17.7055 6.13682 17.4096 5.42334 16.8833 4.89712C16.3571 4.37089 15.6436 4.07491 14.8994 4.0741C13.8904 4.0741 13.0343 4.47669 12.5369 5.15956L12.2841 5.50813L11.8979 5.31652C11.476 5.11136 11.0271 4.96723 10.5647 4.88845L9.8472 4.76003L10.2141 4.13015C11.0438 2.70835 12.6225 2 14.8495 2C17.8786 2 19.6826 3.52678 20.0628 6.42848C20.1922 7.40692 20.1392 8.46079 19.9068 9.55848Z" stroke="white" stroke-width="0.5"/>
</svg>
