<svg width="25" height="24" viewBox="0 0 25 24" fill="none" xmlns="http://www.w3.org/2000/svg">
<path d="M12.0854 2.07027L22.494 11.3809C22.5071 11.3934 22.5148 11.4105 22.5159 11.4285C22.5169 11.4466 22.5111 11.4644 22.4996 11.4784C22.4963 11.4828 22.4796 11.4894 22.4608 11.4894C22.4442 11.4894 22.4298 11.485 22.4187 11.4739L20.5462 9.79751L19.6232 8.96983V20.615C19.6232 21.4194 19.1589 22 18.6293 22H15.3441C14.8499 22 14.4466 21.5967 14.4466 21.1025V15.5824C14.4466 15.1536 14.0987 14.8057 13.6699 14.8057H10.3525C9.9237 14.8057 9.57579 15.1536 9.57579 15.5824V21.1025C9.57579 21.5967 9.17247 22 8.6783 22H5.39306C4.8446 22 4.39918 21.5535 4.39918 21.0061V8.91L1.60146 11.4163C1.59026 11.4255 1.57605 11.4303 1.56157 11.4296C1.54273 11.4296 1.52611 11.4219 1.51392 11.4074C1.50387 11.3951 1.49895 11.3793 1.50019 11.3635C1.50143 11.3476 1.50872 11.3328 1.52057 11.3221L11.9325 2.01487C11.9436 2.00528 11.9578 2 11.9724 2C11.9871 2 12.0012 2.00528 12.0123 2.01487L12.0699 2.05697M12.0854 2.07027C12.0935 2.07674 12.102 2.08266 12.1109 2.088L12.0743 2.0603M12.0854 2.07027L12.0743 2.0603M12.0854 2.07027L12.0699 2.05697M12.0699 2.05697C12.0677 2.0548 12.0654 2.05258 12.0633 2.05032L12.0743 2.0603M12.0699 2.05697L12.0743 2.0603M19.498 8.86014V20.6072C19.498 21.2499 19.1567 21.8704 18.6249 21.8704H15.3396C15.1339 21.8701 14.9367 21.7883 14.7911 21.6429C14.6456 21.4976 14.5635 21.3005 14.5629 21.0948V15.5835C14.5626 15.3456 14.468 15.1175 14.2997 14.9492C14.1315 14.781 13.9034 14.6863 13.6654 14.686H10.3481C10.1101 14.6863 9.88202 14.781 9.71377 14.9492C9.54553 15.1175 9.45088 15.3456 9.45058 15.5835V21.1036C9.45 21.3093 9.36794 21.5064 9.22237 21.6518C9.07681 21.7972 8.87958 21.8789 8.67387 21.8792H5.38863C5.15726 21.8792 4.93534 21.7874 4.77164 21.6239C4.60793 21.4604 4.51581 21.2386 4.51552 21.0072V8.80141L11.9768 2.13564L19.498 8.86014Z" stroke="black"/>
</svg>
