<svg width="24" height="24" viewBox="0 0 24 24" fill="none" xmlns="http://www.w3.org/2000/svg">
<path d="M20.2394 10.3091C20.2394 5.9368 16.6794 2.37879 12.3091 2.37879C7.93478 2.37879 4.37879 5.9368 4.37879 10.3091C4.38138 12.1945 5.05451 14.0176 6.27785 15.4522C7.50118 16.8869 9.19494 17.8397 11.0563 18.1402L11.4827 18.208V19.9369L11.0755 20.0179L8.21938 20.5892C8.18569 20.5963 8.15546 20.6148 8.13372 20.6415C8.11198 20.6682 8.10003 20.7016 8.09986 20.736V21.4733C8.09986 21.5544 8.16671 21.6222 8.24875 21.6222H16.3685C16.4495 21.6222 16.5173 21.5554 16.5173 21.4733V20.736C16.5173 20.6651 16.4667 20.6033 16.3978 20.5892L13.1346 19.9369V18.208L13.5609 18.1402C15.4223 17.8397 17.116 16.8869 18.3394 15.4522C19.5627 14.0176 20.2358 12.1945 20.2384 10.3091H20.2394ZM16.4718 20.2185C16.5914 20.2421 16.699 20.3066 16.7764 20.4008C16.8538 20.495 16.8961 20.6131 16.8961 20.735V21.4733C16.8961 21.5426 16.8825 21.6112 16.856 21.6751C16.8294 21.7391 16.7905 21.7972 16.7415 21.8461C16.6925 21.895 16.6343 21.9338 16.5703 21.9602C16.5063 21.9866 16.4377 22.0001 16.3685 22H8.24773C8.10805 22 7.9741 21.9445 7.87533 21.8457C7.77656 21.747 7.72107 21.613 7.72107 21.4733V20.736C7.72107 20.4838 7.8973 20.2681 8.14443 20.2185L11.3247 19.5925L13.3908 19.6027L16.4697 20.2185H16.4718ZM12.1167 19.2502V18.9585H11.6103L11.8949 19.2421C11.9688 19.2462 12.0417 19.2482 12.1167 19.2502ZM12.4995 19.2502L12.7223 19.2421L13.0059 18.9585H12.4995V19.2502ZM11.1039 19.9713V18.1665L11.6518 18.2121C12.0886 18.2481 12.5276 18.2481 12.9644 18.2121L13.5123 18.1665V19.9713H11.1039ZM12.3091 18.6172C7.72614 18.6172 4 14.8901 4 10.3091C4 5.72715 7.72715 2 12.3081 2C16.8901 2 20.6172 5.72715 20.6172 10.3091C20.6172 14.8911 16.8911 18.6172 12.3091 18.6172Z" stroke="black" stroke-width="0.5"/>
<path d="M12.309 7.11472C11.462 7.11552 10.6498 7.4523 10.0508 8.05117C9.45176 8.65003 9.11473 9.46207 9.11366 10.3091C9.115 11.1557 9.45187 11.9671 10.0504 12.5657C10.649 13.1643 11.4605 13.5012 12.307 13.5025C13.1537 13.5015 13.9655 13.1647 14.5643 12.5661C15.1631 11.9675 15.5001 11.1558 15.5014 10.3091C15.5003 9.46225 15.1635 8.65036 14.5646 8.05152C13.9658 7.45269 13.1539 7.11579 12.307 7.11472H12.309ZM12.309 13.8813C11.3615 13.881 10.4529 13.5047 9.78274 12.8349C9.11256 12.1651 8.73567 11.2566 8.73486 10.3091C8.73567 9.36162 9.11256 8.45318 9.78274 7.78338C10.4529 7.11358 11.3615 6.73721 12.309 6.73694C13.2564 6.73747 14.1648 7.11397 14.8347 7.78374C15.5047 8.45351 15.8814 9.36179 15.8822 10.3091C15.8814 11.2565 15.5047 12.1647 14.8347 12.8345C14.1648 13.5043 13.2564 13.8808 12.309 13.8813Z" stroke="black" stroke-width="0.5"/>
<path d="M12.3089 8.46884C11.8208 8.46911 11.3526 8.66302 11.0073 9.00802C10.6619 9.35302 10.4674 9.82094 10.4666 10.3091C10.4674 10.7969 10.6616 11.2646 11.0065 11.6095C11.3515 11.9545 11.8191 12.1486 12.3069 12.1494C12.7949 12.1489 13.2628 11.9548 13.608 11.6099C13.9531 11.2649 14.1474 10.7971 14.1482 10.3091C14.1474 9.82112 13.9531 9.35335 13.608 9.00838C13.2628 8.6634 12.7949 8.46938 12.3069 8.46884H12.3089ZM12.3089 12.5282C11.7202 12.5282 11.1556 12.2945 10.7391 11.8784C10.3226 11.4623 10.0884 10.8978 10.0879 10.3091C10.0879 9.08463 11.0834 8.09005 12.3069 8.09005C13.5314 8.09005 14.526 9.08463 14.526 10.3081C14.5257 10.8965 14.292 11.4607 13.8762 11.8769C13.4603 12.2932 12.8973 12.5274 12.3089 12.5282ZM12.3089 4.0702C12.1835 4.07592 12.065 4.1298 11.9782 4.22063C11.8914 4.31146 11.843 4.43224 11.843 4.55787C11.843 4.68349 11.8914 4.80428 11.9782 4.89511C12.065 4.98594 12.1835 5.03982 12.3089 5.04554C12.4344 5.03982 12.5529 4.98594 12.6397 4.89511C12.7265 4.80428 12.7749 4.68349 12.7749 4.55787C12.7749 4.43224 12.7265 4.31146 12.6397 4.22063C12.5529 4.1298 12.4344 4.07592 12.3089 4.0702ZM12.3089 5.42332C12.0793 5.42332 11.859 5.33208 11.6966 5.16968C11.5342 5.00728 11.443 4.78703 11.443 4.55736C11.443 4.3277 11.5342 4.10744 11.6966 3.94504C11.859 3.78264 12.0793 3.69141 12.3089 3.69141C12.5386 3.69141 12.7589 3.78264 12.9213 3.94504C13.0837 4.10744 13.1749 4.3277 13.1749 4.55736C13.1749 4.78703 13.0837 5.00728 12.9213 5.16968C12.7589 5.33208 12.5386 5.42332 12.3089 5.42332Z" stroke="black" stroke-width="0.5"/>
<path d="M12.7961 10.302C12.791 10.0397 12.5783 9.82495 12.315 9.82191L12.3292 9.81988C12.3753 9.81467 12.4179 9.79271 12.4489 9.75817C12.4799 9.72363 12.4971 9.67892 12.4973 9.63251C12.4973 9.54845 12.4436 9.47755 12.3454 9.44413M12.7961 10.302C12.8072 10.1936 12.8873 10.1197 12.9845 10.1197C13.0898 10.1197 13.1739 10.2048 13.1739 10.3091C13.1738 10.086 13.0876 9.87142 12.9333 9.71027C12.7789 9.54913 12.5683 9.45378 12.3454 9.44413M12.7961 10.302C12.796 10.2973 12.796 10.2926 12.7961 10.2878V10.302ZM12.3454 9.44413L12.3079 9.44312C12.3282 9.44312 12.3484 9.44615 12.3687 9.45324L12.3454 9.44413Z" stroke="black" stroke-width="0.5"/>
</svg>
