<svg width="21" height="21" viewBox="0 0 21 21" fill="none" xmlns="http://www.w3.org/2000/svg">
<path d="M16 1H5C2.79086 1 1 2.79086 1 5V16C1 18.2091 2.79086 20 5 20H16C18.2091 20 20 18.2091 20 16V5C20 2.79086 18.2091 1 16 1Z" stroke="white" stroke-width="2"/>
<path d="M10.5 17C14.0899 17 17 14.0899 17 10.5C17 6.91015 14.0899 4 10.5 4C6.91015 4 4 6.91015 4 10.5C4 14.0899 6.91015 17 10.5 17Z" stroke="white" stroke-width="2"/>
<path d="M10.5 13.5C12.1569 13.5 13.5 12.1569 13.5 10.5C13.5 8.84315 12.1569 7.5 10.5 7.5C8.84315 7.5 7.5 8.84315 7.5 10.5C7.5 12.1569 8.84315 13.5 10.5 13.5Z" fill="white"/>
</svg>
