<svg width="25" height="24" viewBox="0 0 25 24" fill="none" xmlns="http://www.w3.org/2000/svg">
<path d="M11.8576 12.2911H11.9829C13.1148 12.2722 14.0087 11.8858 14.6721 11.1392C15.3291 10.3969 15.7134 9.34299 15.8682 8.10687C15.9553 7.4305 15.9688 6.74666 15.9082 6.06739C15.8239 4.26165 15.1206 3.15293 14.0572 2.54435C13.4581 2.20005 12.7547 2.01579 11.9745 2H11.8998C11.2154 2 10.4762 2.15162 9.815 2.52856C8.73577 3.13925 8.02505 4.25007 7.93766 6.09476C7.87917 6.76467 7.89329 7.43894 7.97978 8.10582C8.13456 9.34298 8.51887 10.3969 9.17694 11.1392C9.835 11.8837 10.7268 12.2711 11.8576 12.2911ZM11.8576 12.2911H11.8608H11.8524H11.8576ZM18.7363 15.0487C19.4754 15.3003 19.9145 15.8152 20.1472 16.5659C20.2872 17.0218 20.3304 17.4177 20.3504 18.0916C20.3515 18.1306 20.3515 18.1306 20.3546 18.1643V18.1853V18.1927V18.1979V18.2085C20.3672 18.8392 20.3157 19.6194 20.1788 19.9837C20.1727 19.991 20.1656 19.9974 20.1577 20.0026C20.0303 20.0837 19.8576 20.1827 19.5839 20.3217C19.1375 20.5491 18.6163 20.7765 18.0224 20.9892C16.2535 21.621 14.2151 22 11.9345 22C9.69497 22 7.68602 21.6346 5.93608 21.0208C4.87054 20.6481 4.08191 20.248 3.71655 20.0058C3.69655 19.9921 3.69233 19.9868 3.68918 19.9795C3.54387 19.611 3.48912 18.8371 3.50176 18.2043V18.18C3.50597 18.1874 3.50597 18.1506 3.50597 18.0716C3.52703 17.4135 3.56914 17.0155 3.71129 16.5586C3.94503 15.811 4.3841 15.2972 5.1264 15.0424C5.13166 15.0413 5.13166 15.0413 5.1264 15.0413C6.68891 14.6454 8.24722 13.8189 8.93266 13.304C8.9474 13.2946 8.98531 13.3009 9.00636 13.3303C9.01108 13.3371 9.01439 13.3447 9.01609 13.3527C9.0178 13.3607 9.01787 13.369 9.0163 13.3771C9.01473 13.3852 9.01154 13.3928 9.00694 13.3996C9.00234 13.4064 8.99641 13.4122 8.98952 13.4167C8.42014 13.7931 7.82401 14.1274 7.20589 14.417C6.5394 14.7276 5.85922 14.9803 5.18115 15.155C4.00084 15.573 3.67654 16.4743 3.626 18.0895L3.62495 18.1316L3.62179 18.2158C3.61126 18.676 3.65022 19.3003 3.72392 19.6657L3.77025 19.9026L3.98083 20.0216C5.80973 21.0534 8.53361 21.881 11.9303 21.881C15.3417 21.881 18.0635 21.0545 19.8766 20.0247L20.0861 19.9058L20.1335 19.6699C20.204 19.3151 20.2409 18.7128 20.2346 18.2137L20.2304 18.1548V18.1106C20.1809 16.4785 19.8555 15.5773 18.7216 15.1729C17.1085 14.757 15.7134 14.0179 14.8679 13.4209C14.861 13.4164 14.8551 13.4106 14.8505 13.4039C14.8459 13.3971 14.8426 13.3895 14.841 13.3815C14.8393 13.3734 14.8393 13.3652 14.8408 13.3571C14.8424 13.3491 14.8455 13.3414 14.85 13.3346C14.8546 13.3276 14.8605 13.3216 14.8674 13.317C14.8743 13.3124 14.8821 13.3093 14.8903 13.3078C14.8985 13.3063 14.9069 13.3066 14.915 13.3084C14.9231 13.3103 14.9307 13.3138 14.9374 13.3188C15.6007 13.8157 17.1748 14.6496 18.7279 15.0455C18.7216 15.0445 18.7216 15.0445 18.7363 15.0487ZM18.7363 15.0487C18.7437 15.0508 18.7437 15.0508 18.7363 15.0487ZM8.05559 6.08529L8.05769 6.06423C8.19878 3.2477 9.83606 2.12845 11.8955 2.12845H11.9598C14.0793 2.17584 15.6513 3.33719 15.7871 6.09055C15.7825 6.02943 15.7653 5.96992 15.7366 5.91577L15.7871 6.07686C15.8313 6.38326 15.8503 7.15715 15.7724 7.90892C15.6418 9.18189 15.2775 10.2759 14.5826 11.0571C13.9298 11.7942 13.0548 12.1574 11.944 12.1669H11.8955C10.791 12.1564 9.91187 11.791 9.26643 11.0582C8.57362 10.2801 8.20721 9.1861 8.07454 7.91208C7.99768 7.17399 8.01347 6.36852 8.05559 6.08529ZM21.4075 18.1958V18.1979V18.1874V18.1958Z" stroke="black"/>
</svg>
