<svg width="24" height="24" viewBox="0 0 24 24" fill="none" xmlns="http://www.w3.org/2000/svg">
<path d="M20.2394 10.3091C20.2394 5.9368 16.6794 2.37879 12.3091 2.37879C7.93478 2.37879 4.37879 5.9368 4.37879 10.3091C4.38138 12.1945 5.05451 14.0176 6.27785 15.4522C7.50118 16.8869 9.19494 17.8397 11.0563 18.1402L11.4827 18.208V19.9369L11.0755 20.0179L8.21938 20.5892C8.18569 20.5963 8.15546 20.6148 8.13372 20.6415C8.11198 20.6682 8.10003 20.7016 8.09986 20.736V21.4733C8.09986 21.5544 8.16671 21.6222 8.24875 21.6222H16.3685C16.4495 21.6222 16.5173 21.5554 16.5173 21.4733V20.736C16.5173 20.6651 16.4667 20.6033 16.3978 20.5892L13.1346 19.9369V18.208L13.5609 18.1402C15.4223 17.8397 17.116 16.8869 18.3394 15.4522C19.5627 14.0176 20.2358 12.1945 20.2384 10.3091H20.2394ZM16.4718 20.2185C16.5914 20.2421 16.699 20.3066 16.7764 20.4008C16.8538 20.495 16.8961 20.6131 16.8961 20.735V21.4733C16.8961 21.5426 16.8825 21.6112 16.856 21.6751C16.8294 21.7391 16.7905 21.7972 16.7415 21.8461C16.6925 21.895 16.6343 21.9338 16.5703 21.9602C16.5063 21.9866 16.4377 22.0001 16.3685 22H8.24773C8.10805 22 7.9741 21.9445 7.87533 21.8457C7.77656 21.747 7.72107 21.613 7.72107 21.4733V20.736C7.72107 20.4838 7.8973 20.2681 8.14443 20.2185L11.3247 19.5925L13.3908 19.6027L16.4697 20.2185H16.4718ZM12.1167 19.2502V18.9585H11.6103L11.8949 19.2421C11.9688 19.2462 12.0417 19.2482 12.1167 19.2502ZM12.4995 19.2502L12.7223 19.2421L13.0059 18.9585H12.4995V19.2502ZM11.1039 19.9713V18.1665L11.6518 18.2121C12.0886 18.2481 12.5276 18.2481 12.9644 18.2121L13.5123 18.1665V19.9713H11.1039ZM12.3091 18.6172C7.72614 18.6172 4 14.8901 4 10.3091C4 5.72715 7.72715 2 12.3081 2C16.8901 2 20.6172 5.72715 20.6172 10.3091C20.6172 14.8911 16.8911 18.6172 12.3091 18.6172Z" stroke="white" stroke-width="0.5"/>
<path d="M12.3091 7.11472C11.4621 7.11552 10.6499 7.4523 10.0509 8.05117C9.45182 8.65003 9.11479 9.46207 9.11372 10.3091C9.11506 11.1557 9.45193 11.9671 10.0505 12.5657C10.6491 13.1643 11.4606 13.5012 12.3071 13.5025C13.1538 13.5015 13.9656 13.1647 14.5644 12.5661C15.1632 11.9675 15.5002 11.1558 15.5015 10.3091C15.5004 9.46225 15.1636 8.65036 14.5647 8.05152C13.9659 7.45269 13.154 7.11579 12.3071 7.11472H12.3091ZM12.3091 13.8813C11.3616 13.881 10.453 13.5047 9.7828 12.8349C9.11262 12.1651 8.73573 11.2566 8.73492 10.3091C8.73573 9.36162 9.11262 8.45318 9.7828 7.78338C10.453 7.11358 11.3616 6.73721 12.3091 6.73694C13.2565 6.73747 14.1649 7.11397 14.8348 7.78374C15.5048 8.45351 15.8815 9.36179 15.8823 10.3091C15.8815 11.2565 15.5048 12.1647 14.8348 12.8345C14.1649 13.5043 13.2565 13.8808 12.3091 13.8813Z" stroke="white" stroke-width="0.5"/>
<path d="M12.309 8.46884C11.8209 8.46911 11.3527 8.66302 11.0074 9.00802C10.662 9.35302 10.4675 9.82094 10.4667 10.3091C10.4675 10.7969 10.6617 11.2646 11.0066 11.6095C11.3516 11.9545 11.8192 12.1486 12.307 12.1494C12.795 12.1489 13.2629 11.9548 13.6081 11.6099C13.9532 11.2649 14.1475 10.7971 14.1483 10.3091C14.1475 9.82112 13.9532 9.35335 13.6081 9.00838C13.2629 8.6634 12.795 8.46938 12.307 8.46884H12.309ZM12.309 12.5282C11.7203 12.5282 11.1557 12.2945 10.7392 11.8784C10.3227 11.4623 10.0885 10.8978 10.088 10.3091C10.088 9.08463 11.0835 8.09005 12.307 8.09005C13.5315 8.09005 14.5261 9.08463 14.5261 10.3081C14.5258 10.8965 14.2921 11.4607 13.8763 11.8769C13.4604 12.2932 12.8974 12.5274 12.309 12.5282ZM12.309 4.0702C12.1836 4.07592 12.0651 4.1298 11.9783 4.22063C11.8915 4.31146 11.8431 4.43224 11.8431 4.55787C11.8431 4.68349 11.8915 4.80428 11.9783 4.89511C12.0651 4.98594 12.1836 5.03982 12.309 5.04554C12.4345 5.03982 12.553 4.98594 12.6398 4.89511C12.7266 4.80428 12.775 4.68349 12.775 4.55787C12.775 4.43224 12.7266 4.31146 12.6398 4.22063C12.553 4.1298 12.4345 4.07592 12.309 4.0702ZM12.309 5.42332C12.0794 5.42332 11.8591 5.33208 11.6967 5.16968C11.5343 5.00728 11.4431 4.78703 11.4431 4.55736C11.4431 4.3277 11.5343 4.10744 11.6967 3.94504C11.8591 3.78264 12.0794 3.69141 12.309 3.69141C12.5387 3.69141 12.759 3.78264 12.9214 3.94504C13.0838 4.10744 13.175 4.3277 13.175 4.55736C13.175 4.78703 13.0838 5.00728 12.9214 5.16968C12.759 5.33208 12.5387 5.42332 12.309 5.42332Z" stroke="white" stroke-width="0.5"/>
<path d="M12.7961 10.302C12.791 10.0397 12.5783 9.82498 12.315 9.82194L12.3292 9.81991C12.3753 9.8147 12.4179 9.79274 12.4489 9.7582C12.4799 9.72366 12.4971 9.67895 12.4973 9.63254C12.4973 9.54848 12.4436 9.47758 12.3454 9.44416M12.7961 10.302C12.8072 10.1936 12.8873 10.1197 12.9845 10.1197C13.0898 10.1197 13.1739 10.2048 13.1739 10.3091C13.1738 10.086 13.0876 9.87145 12.9333 9.7103C12.7789 9.54916 12.5683 9.45381 12.3454 9.44416M12.7961 10.302C12.796 10.2973 12.796 10.2926 12.7961 10.2878V10.302ZM12.3454 9.44416L12.3079 9.44315C12.3282 9.44315 12.3484 9.44618 12.3687 9.45327L12.3454 9.44416Z" stroke="white" stroke-width="0.5"/>
</svg>
