<svg width="24" height="24" viewBox="0 0 24 24" fill="none" xmlns="http://www.w3.org/2000/svg">
<path d="M1.39961 4.80052H2.59952V6.40004C2.59952 6.62145 2.77881 6.79965 2.99914 6.79965H7.79987C7.90585 6.79965 8.0075 6.75755 8.08244 6.68261C8.15738 6.60767 8.19948 6.50603 8.19948 6.40004V4.80052H22.201C22.3071 4.80052 22.4089 4.75836 22.4839 4.68332C22.559 4.60827 22.6011 4.50649 22.6011 4.40037C22.6011 4.29424 22.559 4.19246 22.4839 4.11742C22.4089 4.04237 22.3071 4.00022 22.201 4.00022H8.20056V2.39961C8.20056 2.29363 8.15846 2.19199 8.08352 2.11704C8.00858 2.0421 7.90693 2 7.80095 2H2.99914C2.89315 2 2.79151 2.0421 2.71657 2.11704C2.64163 2.19199 2.59952 2.29363 2.59952 2.39961V4.00022H1.39961C1.34713 4.00022 1.29517 4.01055 1.24669 4.03063C1.1982 4.05072 1.15415 4.08015 1.11704 4.11726C1.07994 4.15437 1.0505 4.19842 1.03042 4.2469C1.01034 4.29539 1 4.34735 1 4.39983C1 4.4523 1.01034 4.50427 1.03042 4.55275C1.0505 4.60123 1.07994 4.64529 1.11704 4.68239C1.15415 4.7195 1.1982 4.74894 1.24669 4.76902C1.29517 4.7891 1.34713 4.80052 1.39961 4.80052ZM3.39983 2.79922H7.40026V5.99935H3.39983V2.79922ZM22.201 11.6004H14.6008V9.99978C14.6008 9.8938 14.5587 9.79216 14.4838 9.71722C14.4088 9.64227 14.3072 9.60017 14.2012 9.60017H9.39939C9.29341 9.60017 9.19177 9.64227 9.11683 9.71722C9.04189 9.79216 8.99978 9.8938 8.99978 9.99978V11.6015H1.39961C1.29363 11.6015 1.19199 11.6436 1.11704 11.7185C1.0421 11.7935 1 11.8951 1 12.0011C1 12.1071 1.0421 12.2087 1.11704 12.2836C1.19199 12.3586 1.29363 12.4007 1.39961 12.4007H8.99978V14.0013C8.99978 14.2227 9.17907 14.4009 9.39939 14.4009H14.2001C14.3061 14.4009 14.4078 14.3588 14.4827 14.2839C14.5576 14.2089 14.5997 14.1073 14.5997 14.0013V12.4007H22.201C22.3071 12.4007 22.4089 12.3585 22.4839 12.2835C22.559 12.2084 22.6011 12.1067 22.6011 12.0005C22.6011 11.8944 22.559 11.7926 22.4839 11.7176C22.4089 11.6425 22.3071 11.6004 22.201 11.6004ZM13.8005 13.6006H9.80009V10.4005H13.8005V13.6006ZM22.201 19.2006H21.0011V17.6C21.0011 17.494 20.959 17.3923 20.884 17.3174C20.8091 17.2424 20.7075 17.2003 20.6015 17.2003H15.8007C15.6948 17.2003 15.5931 17.2424 15.5182 17.3174C15.4432 17.3923 15.4011 17.494 15.4011 17.6V19.2006H1.39961C1.29363 19.2006 1.19199 19.2427 1.11704 19.3176C1.0421 19.3925 1 19.4942 1 19.6002C1 19.7062 1.0421 19.8078 1.11704 19.8827C1.19199 19.9577 1.29363 19.9998 1.39961 19.9998H15.4V21.6004C15.4 21.8218 15.5793 22 15.7997 22H20.6004C20.6529 22 20.7048 21.9897 20.7533 21.9696C20.8018 21.9495 20.8458 21.9201 20.883 21.883C20.9201 21.8458 20.9495 21.8018 20.9696 21.7533C20.9897 21.7048 21 21.6529 21 21.6004V20.0009H22.201C22.3071 20.0009 22.4089 19.9587 22.4839 19.8837C22.559 19.8086 22.6011 19.7068 22.6011 19.6007C22.6011 19.4946 22.559 19.3928 22.4839 19.3178C22.4089 19.2427 22.3071 19.2006 22.201 19.2006ZM20.2008 21.2008H16.2003V18.0006H20.2008V21.2008Z" fill="white"/>
</svg>
