<svg width="28" height="28" viewBox="0 0 28 28" fill="none" xmlns="http://www.w3.org/2000/svg">
<path d="M10.8308 7.67352C9.96224 7.67446 9.12955 8.0199 8.5154 8.63405C7.90125 9.2482 7.55581 10.0809 7.55486 10.9494C7.55612 11.8176 7.90154 12.6498 8.5154 13.2636C9.12926 13.8775 9.96147 14.2229 10.8296 14.2242C11.6981 14.2232 12.5308 13.8778 13.145 13.2636C13.7591 12.6495 14.1046 11.8168 14.1055 10.9482C14.1043 10.0799 13.7587 9.24752 13.1446 8.63363C12.5304 8.01974 11.6991 7.67446 10.8308 7.67352ZM10.8308 14.5928C9.86427 14.5921 8.93752 14.208 8.25398 13.5247C7.57045 12.8414 7.186 11.9148 7.18506 10.9482C7.186 9.98174 7.57045 9.05511 8.25398 8.37179C8.93752 7.68848 9.86427 7.30434 10.8308 7.30371C11.7971 7.30466 12.7235 7.68894 13.4068 8.37221C14.0901 9.05549 14.4744 9.98194 14.4753 10.9482C14.4744 11.9145 14.0901 12.841 13.4068 13.5243C12.7235 14.2076 11.7971 14.5918 10.8308 14.5928Z" stroke="white" stroke-width="0.5"/>
<path d="M23.0416 7.54737C22.6207 4.33923 20.6955 2.70187 17.3233 2.70187C14.4862 2.70187 12.8643 3.68167 12.0806 5.2679L11.9047 5.62582L11.5051 5.59728C11.28 5.58081 11.0543 5.57248 10.8285 5.57231C7.4575 5.57231 5.53238 7.20848 5.11144 10.4178C4.96875 11.513 5.02702 12.6997 5.28981 13.9434C6.34333 18.94 8.53124 22.6796 10.7905 25.0732C10.8006 25.0835 10.8142 25.0894 10.8285 25.0899C10.8416 25.0899 10.8571 25.0839 10.8666 25.0732C11.9903 23.883 13.2543 22.1172 14.3613 19.8318L14.8155 18.8924L15.3922 19.7616C16.0914 20.8187 16.7525 21.6392 17.2864 22.204C17.296 22.2135 17.3102 22.2206 17.3221 22.2206C17.3352 22.2206 17.3507 22.2135 17.3602 22.204C19.6194 19.8092 21.8073 16.0683 22.862 11.0742C23.1248 9.82922 23.1831 8.64251 23.0404 7.54737H23.0416ZM10.3898 25.1814C8.13052 22.6963 5.96639 18.9376 4.92951 14.0195C4.6584 12.7377 4.59657 11.5106 4.7464 10.3691C5.19111 6.98375 7.29579 5.2025 10.8297 5.2025C12.2852 5.2025 13.5052 5.50572 14.4862 6.12285C15.9535 7.08958 16.68 8.69246 16.9119 10.4713C16.9317 10.6215 16.9476 10.7722 16.9594 10.9232L16.963 10.9553C16.9737 11.0944 16.9808 11.2407 16.9868 11.3988C17.0024 12.2793 16.9166 13.1587 16.7311 14.0195C15.6931 18.9376 13.5266 22.6998 11.2697 25.1826L10.8297 25.6666L10.3898 25.1814ZM14.3815 5.7257C15.0474 4.86718 16.1425 4.38442 17.3828 4.38442C18.3491 4.38536 19.2755 4.76964 19.9588 5.45292C20.6421 6.1362 21.0263 7.06265 21.0273 8.02895C21.0264 8.52633 20.9239 9.01828 20.726 9.47458C20.528 9.93087 20.2388 10.3419 19.8762 10.6823C19.5136 11.0228 19.0852 11.2855 18.6174 11.4543C18.1495 11.6231 17.6521 11.6944 17.1556 11.664L16.6313 11.6283L16.6039 11.1027C16.594 10.8741 16.5749 10.6461 16.5468 10.419C16.315 8.65322 15.6241 7.37139 14.5064 6.57351L14.0022 6.21441L14.3815 5.7257ZM23.2247 11.1515C22.1878 16.0671 20.0213 19.8306 17.7645 22.3134L17.3245 22.7973L16.8845 22.3134C16.1116 21.4456 15.4146 20.5131 14.8013 19.5262L14.6336 19.2586L14.7596 18.9697C15.4674 17.3544 16.0069 15.6705 16.3697 13.9446C16.5147 13.255 16.5944 12.5665 16.6122 11.8756L16.6277 11.2668L17.2341 11.2954L17.2936 11.2989H17.2983L17.3828 11.3037C18.2511 11.3024 19.0835 10.9568 19.6974 10.3427C20.3113 9.72861 20.6565 8.89609 20.6575 8.02776C20.6565 7.15954 20.3112 6.32715 19.6973 5.71322C19.0834 5.09929 18.251 4.75398 17.3828 4.75303C16.2056 4.75303 15.2067 5.22272 14.6265 6.0194L14.3316 6.42607L13.8809 6.20252C13.3888 5.96317 12.8651 5.79502 12.3256 5.70311L11.4885 5.55328L11.9166 4.81843C12.8845 3.15966 14.7264 2.33325 17.3245 2.33325C20.8584 2.33325 22.9631 4.11449 23.4066 7.49981C23.5577 8.64133 23.4958 9.87084 23.2247 11.1515Z" stroke="white" stroke-width="0.5"/>
</svg>
