<svg width="25" height="24" viewBox="0 0 25 24" fill="none" xmlns="http://www.w3.org/2000/svg">
<path d="M9.7836 6.57723C9.03913 6.57804 8.3254 6.87413 7.79898 7.40055C7.27257 7.92696 6.97647 8.6407 6.97567 9.38516C6.97674 10.1292 7.27282 10.8425 7.79898 11.3687C8.32515 11.8949 9.03847 12.191 9.78258 12.192C10.5271 12.1912 11.2408 11.8951 11.7672 11.3687C12.2936 10.8423 12.5897 10.1286 12.5905 9.38414C12.5895 8.63986 12.2933 7.92638 11.7669 7.40019C11.2405 6.87399 10.5279 6.57804 9.7836 6.57723ZM9.7836 12.508C8.95516 12.5074 8.1608 12.1782 7.57491 11.5925C6.98902 11.0068 6.6595 10.2125 6.65869 9.38414C6.6595 8.55571 6.98902 7.76145 7.57491 7.17575C8.1608 6.59006 8.95516 6.26079 9.7836 6.26025C10.6119 6.26106 11.406 6.59045 11.9917 7.17611C12.5773 7.76178 12.9067 8.55588 12.9075 9.38414C12.9067 10.2124 12.5773 11.0065 11.9917 11.5921C11.406 12.1778 10.6119 12.5072 9.7836 12.508Z" stroke="black" stroke-width="0.5"/>
<path d="M20.2499 6.46925C19.8891 3.71941 18.239 2.31596 15.3485 2.31596C12.9166 2.31596 11.5264 3.15579 10.8548 4.51542L10.7039 4.8222L10.3615 4.79774C10.1685 4.78362 9.97505 4.77649 9.78154 4.77633C6.89207 4.77633 5.24197 6.17877 4.88117 8.92962C4.75886 9.86832 4.8088 10.8855 5.03405 11.9516C5.93707 16.2343 7.81242 19.4397 9.74893 21.4914C9.75756 21.5002 9.76924 21.5053 9.78154 21.5057C9.79275 21.5057 9.806 21.5006 9.81415 21.4914C10.7773 20.4712 11.8607 18.9577 12.8096 16.9987L13.199 16.1936L13.6933 16.9386C14.2926 17.8447 14.8593 18.5479 15.3169 19.0321C15.325 19.0402 15.3373 19.0463 15.3475 19.0463C15.3587 19.0463 15.3719 19.0402 15.3801 19.0321C17.3166 16.9794 19.1919 13.7729 20.096 9.49223C20.3212 8.42511 20.3712 7.40794 20.2488 6.46925H20.2499ZM9.40545 21.5842C7.46895 19.454 5.61398 16.2323 4.72523 12.0168C4.49285 10.9181 4.43985 9.86628 4.56827 8.88784C4.94945 5.98614 6.75346 4.45936 9.78256 4.45936C11.0301 4.45936 12.0758 4.71926 12.9166 5.24823C14.1743 6.07685 14.7971 7.45075 14.9958 8.97549C15.0128 9.10421 15.0264 9.23335 15.0366 9.36279L15.0397 9.39031C15.0488 9.50956 15.0549 9.63492 15.06 9.77047C15.0734 10.5252 14.9999 11.2789 14.8409 12.0168C13.9511 16.2323 12.0941 19.4571 10.1597 21.5852L9.78256 22L9.40545 21.5842ZM12.8269 4.90781C13.3977 4.17194 14.3364 3.75814 15.3994 3.75814C16.2277 3.75895 17.0218 4.08833 17.6075 4.674C18.1931 5.25967 18.5225 6.05377 18.5233 6.88203C18.5226 7.30835 18.4347 7.73003 18.265 8.12114C18.0954 8.51225 17.8475 8.86453 17.5367 9.15634C17.2259 9.44815 16.8587 9.67332 16.4577 9.81802C16.0567 9.96272 15.6303 10.0239 15.2048 9.99776L14.7553 9.96718L14.7319 9.51669C14.7233 9.32077 14.707 9.12527 14.6829 8.93064C14.4842 7.41711 13.892 6.3184 12.934 5.63451L12.5018 5.32671L12.8269 4.90781ZM20.4068 9.55848C19.5181 13.7719 17.6611 16.9977 15.7266 19.1258L15.3495 19.5406L14.9724 19.1258C14.3099 18.382 13.7125 17.5828 13.1867 16.7368L13.043 16.5075L13.1511 16.2598C13.7577 14.8753 14.2202 13.4319 14.5311 11.9526C14.6554 11.3615 14.7237 10.7713 14.739 10.1792L14.7522 9.65734L15.272 9.6818L15.323 9.68486H15.3271L15.3994 9.68894C16.1437 9.68786 16.8572 9.39164 17.3834 8.86526C17.9096 8.33888 18.2055 7.62529 18.2063 6.88101C18.2055 6.13682 17.9096 5.42334 17.3833 4.89712C16.8571 4.37089 16.1436 4.07491 15.3994 4.0741C14.3904 4.0741 13.5343 4.47669 13.0369 5.15956L12.7841 5.50813L12.3979 5.31652C11.976 5.11136 11.5271 4.96723 11.0647 4.88845L10.3472 4.76003L10.7141 4.13015C11.5438 2.70835 13.1225 2 15.3495 2C18.3786 2 20.1826 3.52678 20.5628 6.42848C20.6922 7.40692 20.6392 8.46079 20.4068 9.55848Z" stroke="black" stroke-width="0.5"/>
</svg>
