<svg width="24" height="24" viewBox="0 0 24 24" fill="none" xmlns="http://www.w3.org/2000/svg">
<rect x="1.5" y="4.5" width="20" height="15" rx="0.5" stroke="white"/>
<line x1="6.5" y1="3" x2="6.5" y2="6" stroke="white"/>
<line x1="16.5" y1="3" x2="16.5" y2="6" stroke="white"/>
<circle cx="5.5" cy="9.5" r="0.5" fill="white"/>
<circle cx="5.5" cy="12.5" r="0.5" fill="white"/>
<circle cx="5.5" cy="15.5" r="0.5" fill="white"/>
<circle cx="8.5" cy="9.5" r="0.5" fill="white"/>
<circle cx="8.5" cy="12.5" r="0.5" fill="white"/>
<circle cx="8.5" cy="15.5" r="0.5" fill="white"/>
<circle cx="11.5" cy="9.5" r="0.5" fill="white"/>
<circle cx="11.5" cy="12.5" r="0.5" fill="white"/>
<circle cx="11.5" cy="15.5" r="0.5" fill="white"/>
<circle cx="14.5" cy="9.5" r="0.5" fill="white"/>
<circle cx="14.5" cy="12.5" r="0.5" fill="white"/>
<circle cx="14.5" cy="15.5" r="0.5" fill="white"/>
<circle cx="17.5" cy="9.5" r="0.5" fill="white"/>
<circle cx="17.5" cy="12.5" r="0.5" fill="white"/>
<circle cx="17.5" cy="15.5" r="0.5" fill="white"/>
</svg>
