<svg width="24" height="24" viewBox="0 0 24 24" fill="none" xmlns="http://www.w3.org/2000/svg">
<path d="M11.5854 2.07027L21.994 11.3809C22.0071 11.3934 22.0148 11.4105 22.0159 11.4285C22.0169 11.4466 22.0111 11.4644 21.9996 11.4784C21.9963 11.4828 21.9796 11.4894 21.9608 11.4894C21.9442 11.4894 21.9298 11.485 21.9187 11.4739L20.0462 9.79751L19.1232 8.96983V20.615C19.1232 21.4194 18.6589 22 18.1293 22H14.8441C14.3499 22 13.9466 21.5967 13.9466 21.1025V15.5824C13.9466 15.1536 13.5987 14.8057 13.1699 14.8057H9.8525C9.4237 14.8057 9.07579 15.1536 9.07579 15.5824V21.1025C9.07579 21.5967 8.67247 22 8.1783 22H4.89306C4.3446 22 3.89918 21.5535 3.89918 21.0061V8.91L1.10146 11.4163C1.09026 11.4255 1.07605 11.4303 1.06157 11.4296C1.04273 11.4296 1.02611 11.4219 1.01392 11.4074C1.00387 11.3951 0.99895 11.3793 1.00019 11.3635C1.00143 11.3476 1.00872 11.3328 1.02057 11.3221L11.4325 2.01487C11.4436 2.00528 11.4578 2 11.4724 2C11.4871 2 11.5012 2.00528 11.5123 2.01487L11.5699 2.05697M11.5854 2.07027C11.5935 2.07674 11.602 2.08266 11.6109 2.088L11.5743 2.0603M11.5854 2.07027L11.5743 2.0603M11.5854 2.07027L11.5699 2.05697M11.5743 2.0603L11.5633 2.05032C11.5654 2.05258 11.5677 2.0548 11.5699 2.05697M11.5743 2.0603L11.5699 2.05697M18.998 8.86014V20.6072C18.998 21.2499 18.6567 21.8704 18.1249 21.8704H14.8396C14.6339 21.8701 14.4367 21.7883 14.2911 21.6429C14.1456 21.4976 14.0635 21.3005 14.0629 21.0948V15.5835C14.0626 15.3456 13.968 15.1175 13.7997 14.9492C13.6315 14.781 13.4034 14.6863 13.1654 14.686H9.84807C9.61013 14.6863 9.38202 14.781 9.21377 14.9492C9.04553 15.1175 8.95088 15.3456 8.95058 15.5835V21.1036C8.95 21.3093 8.86794 21.5064 8.72237 21.6518C8.57681 21.7972 8.37958 21.8789 8.17387 21.8792H4.88863C4.65726 21.8792 4.43534 21.7874 4.27164 21.6239C4.10793 21.4604 4.01581 21.2386 4.01552 21.0072V8.80141L11.4768 2.13564L18.998 8.86014Z" stroke="white"/>
</svg>
