<svg width="24" height="24" viewBox="0 0 24 24" fill="none" xmlns="http://www.w3.org/2000/svg">
<path d="M21.901 12.137C21.9282 12.0717 21.9353 11.9998 21.9216 11.9303C21.9079 11.8609 21.874 11.7971 21.824 11.747L17.538 7.46201C17.5049 7.42885 17.4655 7.40255 17.4222 7.3846C17.3788 7.36666 17.3324 7.35742 17.2855 7.35742C17.2386 7.35742 17.1922 7.36666 17.1489 7.3846C17.1055 7.40255 17.0662 7.42885 17.033 7.46201C16.9999 7.49517 16.9736 7.53453 16.9556 7.57786C16.9377 7.62118 16.9284 7.66762 16.9284 7.71451C16.9284 7.7614 16.9377 7.80784 16.9556 7.85116C16.9736 7.89449 16.9999 7.93385 17.033 7.96701L20.709 11.643H9.78602C9.69133 11.643 9.60053 11.6806 9.53358 11.7476C9.46663 11.8145 9.42902 11.9053 9.42902 12C9.42902 12.0947 9.46663 12.1855 9.53358 12.2524C9.60053 12.3194 9.69133 12.357 9.78602 12.357H20.709L17.033 16.033C16.966 16.1 16.9284 16.1908 16.9284 16.2855C16.9284 16.3802 16.966 16.471 17.033 16.538C17.1 16.605 17.1908 16.6426 17.2855 16.6426C17.3802 16.6426 17.471 16.605 17.538 16.538L21.824 12.253C21.857 12.2197 21.8831 12.1803 21.901 12.137Z" fill="white"/>
<path d="M15.5 13.786C15.4053 13.786 15.3145 13.8236 15.2476 13.8906C15.1806 13.9575 15.143 14.0483 15.143 14.143V21.286H3.714V12V2.714H15.143V9.857C15.143 9.95168 15.1806 10.0425 15.2476 10.1094C15.3145 10.1764 15.4053 10.214 15.5 10.214C15.5947 10.214 15.6855 10.1764 15.7524 10.1094C15.8194 10.0425 15.857 9.95168 15.857 9.857V2.357C15.857 2.26232 15.8194 2.17151 15.7524 2.10456C15.6855 2.03761 15.5947 2 15.5 2H3.357C3.26232 2 3.17151 2.03761 3.10456 2.10456C3.03761 2.17151 3 2.26232 3 2.357V21.643C3 21.84 3.16 22 3.357 22H15.5C15.697 22 15.857 21.84 15.857 21.643V14.143C15.857 14.0483 15.8194 13.9575 15.7524 13.8906C15.6855 13.8236 15.5947 13.786 15.5 13.786Z" fill="white"/>
</svg>
