<svg width="25" height="24" viewBox="0 0 25 24" fill="none" xmlns="http://www.w3.org/2000/svg">
<path d="M1.89961 4.80052H3.09952V6.40004C3.09952 6.62145 3.27881 6.79965 3.49914 6.79965H8.29987C8.40585 6.79965 8.5075 6.75755 8.58244 6.68261C8.65738 6.60767 8.69948 6.50603 8.69948 6.40004V4.80052H22.701C22.8071 4.80052 22.9089 4.75836 22.9839 4.68332C23.059 4.60827 23.1011 4.50649 23.1011 4.40037C23.1011 4.29424 23.059 4.19246 22.9839 4.11742C22.9089 4.04237 22.8071 4.00022 22.701 4.00022H8.70056V2.39961C8.70056 2.29363 8.65846 2.19199 8.58352 2.11704C8.50858 2.0421 8.40693 2 8.30095 2H3.49914C3.39315 2 3.29151 2.0421 3.21657 2.11704C3.14163 2.19199 3.09952 2.29363 3.09952 2.39961V4.00022H1.89961C1.84713 4.00022 1.79517 4.01055 1.74669 4.03063C1.6982 4.05072 1.65415 4.08015 1.61704 4.11726C1.57994 4.15437 1.5505 4.19842 1.53042 4.2469C1.51034 4.29539 1.5 4.34735 1.5 4.39983C1.5 4.4523 1.51034 4.50427 1.53042 4.55275C1.5505 4.60123 1.57994 4.64529 1.61704 4.68239C1.65415 4.7195 1.6982 4.74894 1.74669 4.76902C1.79517 4.7891 1.84713 4.80052 1.89961 4.80052ZM3.89983 2.79922H7.90026V5.99935H3.89983V2.79922ZM22.701 11.6004H15.1008V9.99978C15.1008 9.8938 15.0587 9.79216 14.9838 9.71722C14.9088 9.64227 14.8072 9.60017 14.7012 9.60017H9.89939C9.79341 9.60017 9.69177 9.64227 9.61683 9.71722C9.54189 9.79216 9.49978 9.8938 9.49978 9.99978V11.6015H1.89961C1.79363 11.6015 1.69199 11.6436 1.61704 11.7185C1.5421 11.7935 1.5 11.8951 1.5 12.0011C1.5 12.1071 1.5421 12.2087 1.61704 12.2836C1.69199 12.3586 1.79363 12.4007 1.89961 12.4007H9.49978V14.0013C9.49978 14.2227 9.67907 14.4009 9.89939 14.4009H14.7001C14.8061 14.4009 14.9078 14.3588 14.9827 14.2839C15.0576 14.2089 15.0997 14.1073 15.0997 14.0013V12.4007H22.701C22.8071 12.4007 22.9089 12.3585 22.9839 12.2835C23.059 12.2084 23.1011 12.1067 23.1011 12.0005C23.1011 11.8944 23.059 11.7926 22.9839 11.7176C22.9089 11.6425 22.8071 11.6004 22.701 11.6004ZM14.3005 13.6006H10.3001V10.4005H14.3005V13.6006ZM22.701 19.2006H21.5011V17.6C21.5011 17.494 21.459 17.3923 21.384 17.3174C21.3091 17.2424 21.2075 17.2003 21.1015 17.2003H16.3007C16.1948 17.2003 16.0931 17.2424 16.0182 17.3174C15.9432 17.3923 15.9011 17.494 15.9011 17.6V19.2006H1.89961C1.79363 19.2006 1.69199 19.2427 1.61704 19.3176C1.5421 19.3925 1.5 19.4942 1.5 19.6002C1.5 19.7062 1.5421 19.8078 1.61704 19.8827C1.69199 19.9577 1.79363 19.9998 1.89961 19.9998H15.9V21.6004C15.9 21.8218 16.0793 22 16.2997 22H21.1004C21.1529 22 21.2048 21.9897 21.2533 21.9696C21.3018 21.9495 21.3458 21.9201 21.383 21.883C21.4201 21.8458 21.4495 21.8018 21.4696 21.7533C21.4897 21.7048 21.5 21.6529 21.5 21.6004V20.0009H22.701C22.8071 20.0009 22.9089 19.9587 22.9839 19.8837C23.059 19.8086 23.1011 19.7068 23.1011 19.6007C23.1011 19.4946 23.059 19.3928 22.9839 19.3178C22.9089 19.2427 22.8071 19.2006 22.701 19.2006ZM20.7008 21.2008H16.7003V18.0006H20.7008V21.2008Z" fill="black"/>
</svg>
