<svg width="24" height="24" viewBox="0 0 24 24" fill="none" xmlns="http://www.w3.org/2000/svg">
<path fill-rule="evenodd" clip-rule="evenodd" d="M5.85003 23.9995C5.7218 23.9995 5.59356 23.9735 5.46904 23.9224L4.13651 23.3714C3.91478 23.2782 3.73346 23.1091 3.62501 22.8944C3.51656 22.6797 3.48805 22.4334 3.54458 22.1996C3.61613 21.9153 3.69047 21.6235 3.76853 21.3335C3.35885 21.0101 2.98836 20.6399 2.66459 20.2305C2.37467 20.3086 2.08381 20.3839 1.80039 20.4554C1.5665 20.5117 1.32021 20.483 1.10554 20.3744C0.89088 20.2657 0.721834 20.0843 0.62862 19.8626L0.0757204 18.531C-0.0156136 18.3084 -0.02462 18.0606 0.0503189 17.8321C0.125258 17.6035 0.279232 17.4092 0.484587 17.2839C0.737341 17.1315 0.99567 16.981 1.25493 16.8286C1.19484 16.3106 1.19484 15.7873 1.25493 15.2693C0.996705 15.12 0.739913 14.9682 0.484587 14.814C0.279519 14.6889 0.125722 14.4949 0.0507901 14.2667C-0.0241413 14.0385 -0.0153026 13.7911 0.0757204 13.5688L0.62769 12.2363C0.816327 11.78 1.31998 11.5245 1.79854 11.6453C2.08196 11.714 2.37374 11.7893 2.66366 11.8674C2.98797 11.4585 3.35873 11.0868 3.7676 10.7634C3.69079 10.4757 3.61645 10.1873 3.54458 9.89829C3.48784 9.66473 3.51616 9.4186 3.62447 9.20403C3.73277 8.98947 3.91398 8.8205 4.13558 8.72745L5.46904 8.17548C5.6915 8.08478 5.93895 8.07611 6.16721 8.151C6.39547 8.2259 6.58968 8.37948 6.71516 8.58434C6.8657 8.83524 7.01809 9.0945 7.16863 9.35468C7.6872 9.29336 8.21119 9.29336 8.72976 9.35468C8.87936 9.09636 9.03269 8.8371 9.18323 8.58527C9.3086 8.38004 9.5029 8.22611 9.73138 8.15103C9.95986 8.07595 10.2076 8.08461 10.4303 8.17548L11.7628 8.72745C12.2191 8.91608 12.4746 9.41973 12.3547 9.89829C12.2832 10.1826 12.2079 10.4744 12.1308 10.7634C12.5397 11.0877 12.9113 11.4594 13.2347 11.8674C13.5246 11.7893 13.8155 11.714 14.0998 11.6443C14.3336 11.5878 14.5799 11.6163 14.7946 11.7248C15.0093 11.8332 15.1784 12.0145 15.2716 12.2363L15.8236 13.5679C15.9146 13.7904 15.9233 14.038 15.8482 14.2664C15.7731 14.4948 15.6191 14.6889 15.4138 14.814C15.1629 14.9664 14.9027 15.1197 14.6435 15.2693C14.7048 15.7876 14.7048 16.3113 14.6435 16.8295C14.9027 16.98 15.161 17.1315 15.4147 17.2839C15.8366 17.5376 16.0122 18.0738 15.8236 18.531L15.2716 19.8626C15.0821 20.3179 14.5784 20.5734 14.1008 20.4554C13.8155 20.3839 13.5246 20.3067 13.2347 20.2305C12.9113 20.6403 12.5397 21.0102 12.1308 21.3335C12.2088 21.6263 12.2841 21.9171 12.3547 22.1996C12.4113 22.4334 12.3828 22.6797 12.2743 22.8944C12.1659 23.1091 11.9845 23.2782 11.7628 23.3714L10.4303 23.9224C10.2076 24.0133 9.95986 24.0219 9.73138 23.9469C9.5029 23.8718 9.3086 23.7179 9.18323 23.5126C9.03176 23.2608 8.87936 23.0015 8.73069 22.7432C8.21172 22.8032 7.68759 22.8032 7.16863 22.7432C7.01809 23.0034 6.8657 23.2636 6.71516 23.5126C6.53024 23.8221 6.19571 23.9995 5.85003 23.9995ZM4.60113 22.4012L5.82494 22.9077C5.96991 22.667 6.1158 22.4198 6.25983 22.1689C6.4624 21.8158 6.85269 21.6207 7.25505 21.6718C7.71595 21.7294 8.18429 21.7294 8.64519 21.6718C9.0457 21.6216 9.43598 21.8168 9.63949 22.1699C9.78259 22.417 9.92755 22.6652 10.0734 22.9077L11.2973 22.4012C11.2281 22.1246 11.1563 21.8486 11.0817 21.5733C11.0296 21.3823 11.0351 21.1802 11.0976 20.9924C11.1601 20.8045 11.2768 20.6394 11.4329 20.5177C11.7997 20.2308 12.1299 19.9 12.4161 19.5327C12.5376 19.3767 12.7027 19.2602 12.8904 19.1978C13.0781 19.1355 13.28 19.1301 13.4708 19.1824C13.7495 19.2567 14.0283 19.3301 14.3015 19.3989L14.8089 18.1741C14.5654 18.0282 14.3164 17.8814 14.0701 17.7402C13.717 17.5357 13.5219 17.1455 13.5711 16.7431C13.6287 16.2822 13.6287 15.8138 13.5711 15.3539C13.5471 15.1574 13.5816 14.9582 13.6704 14.7813C13.7592 14.6044 13.8982 14.4577 14.0701 14.3596C14.3182 14.2156 14.5673 14.0697 14.8089 13.9256L14.3015 12.7C14.0283 12.7697 13.7495 12.8421 13.4717 12.9155C13.2809 12.968 13.0789 12.9628 12.8912 12.9004C12.7034 12.838 12.5384 12.7214 12.417 12.5652C12.1309 12.1984 11.8007 11.8682 11.4339 11.5821C11.2775 11.4607 11.1607 11.2958 11.098 11.1081C11.0353 10.9204 11.0296 10.7183 11.0817 10.5274C11.1569 10.2486 11.2285 9.96984 11.2973 9.69665L10.0734 9.19021C9.92668 9.43539 9.78171 9.68165 9.63856 9.92896C9.43598 10.2821 9.0457 10.4772 8.64427 10.4261C8.1823 10.3695 7.71516 10.3695 7.25319 10.4261C7.05686 10.4509 6.85759 10.4169 6.68059 10.3284C6.50359 10.2399 6.35683 10.1009 6.2589 9.92896C6.1163 9.68151 5.97164 9.43525 5.82494 9.19021L4.60113 9.69665C4.6699 9.9717 4.74145 10.2514 4.81672 10.5274C4.92265 10.9186 4.78419 11.333 4.46639 11.5821C4.09851 11.867 3.76817 12.1973 3.48325 12.5652C3.36137 12.7214 3.19601 12.8379 3.008 12.9003C2.81999 12.9626 2.61773 12.9679 2.4267 12.9155C2.14886 12.8412 1.87009 12.7697 1.59689 12.7018L1.08952 13.9256C1.33206 14.0706 1.58109 14.2165 1.83013 14.3587C2.18231 14.5631 2.37745 14.9534 2.32728 15.3539C2.26966 15.8157 2.26966 16.2831 2.32728 16.745C2.37652 17.1455 2.18138 17.5367 1.8292 17.7392C1.58109 17.8823 1.33206 18.0282 1.08952 18.1741L1.59689 19.3989C1.87102 19.3301 2.14979 19.2567 2.4267 19.1824C2.81884 19.0764 3.23422 19.2139 3.48139 19.5336C3.76667 19.8997 4.09748 20.2305 4.46453 20.5158C4.78419 20.7649 4.92265 21.1784 4.81672 21.5714C4.74238 21.8502 4.6699 22.129 4.60113 22.4012Z" fill="white"/>
<path fill-rule="evenodd" clip-rule="evenodd" d="M7.95009 19.712C7.47618 19.712 7.00133 19.6191 6.54972 19.4323C6.10473 19.2491 5.70046 18.9795 5.36025 18.6392C5.02005 18.2988 4.75066 17.8944 4.56765 17.4493C4.19737 16.5521 4.1981 15.5447 4.56969 14.6481C4.94127 13.7514 5.65336 13.0388 6.54972 12.6665C7.44674 12.2957 8.45428 12.296 9.35105 12.6675C10.2478 13.0389 10.9605 13.7511 11.3325 14.6476C11.5624 15.204 11.6517 15.8085 11.5925 16.4076C11.5332 17.0067 11.3274 17.582 10.993 18.0826C10.6586 18.5832 10.2061 18.9938 9.67538 19.278C9.14466 19.5622 8.55211 19.7112 7.95009 19.712ZM7.94637 13.461C7.52155 13.4623 7.10358 13.5682 6.7293 13.7691C6.35502 13.9701 6.03593 14.2601 5.80015 14.6135C5.56438 14.9668 5.41915 15.3728 5.37729 15.7956C5.33542 16.2183 5.3982 16.6449 5.56008 17.0377C5.82491 17.6761 6.32206 18.1723 6.96045 18.4371C7.43307 18.6317 7.95273 18.6821 8.45394 18.5819C8.95514 18.4817 9.41547 18.2353 9.77689 17.8739C10.1383 17.5125 10.3847 17.0521 10.4849 16.5509C10.5851 16.0497 10.5347 15.5301 10.3401 15.0574C10.1434 14.5848 9.811 14.1811 9.38495 13.8973C8.9589 13.6135 8.4583 13.4623 7.94637 13.4629M18.4264 12.1935H17.3782C17.1747 12.1922 16.9783 12.1186 16.824 11.9858C16.6698 11.8531 16.5678 11.6698 16.5363 11.4687C16.5084 11.2838 16.4824 11.0942 16.4564 10.9019C16.1345 10.8053 15.8231 10.6764 15.5271 10.5172C15.3747 10.6333 15.2205 10.7495 15.069 10.8619C14.9047 10.9822 14.7028 11.0398 14.4998 11.0245C14.2967 11.0092 14.1058 10.9219 13.9614 10.7783L13.2217 10.0367C13.0786 9.89245 12.9916 9.70189 12.9762 9.49925C12.9609 9.29661 13.0183 9.09513 13.1381 8.93095C13.2496 8.77948 13.3648 8.6243 13.4819 8.4719C13.3225 8.17599 13.1936 7.86464 13.0972 7.54266C12.9057 7.51757 12.7162 7.49155 12.5294 7.46182C12.3285 7.43086 12.1453 7.32925 12.0126 7.17528C11.8799 7.0213 11.8065 6.82504 11.8055 6.62178V5.57174C11.8055 5.15358 12.1168 4.7921 12.5294 4.7317C12.7152 4.70383 12.9057 4.67595 13.0972 4.65086C13.1938 4.32934 13.323 4.01804 13.4828 3.72162C13.3648 3.56736 13.2486 3.41497 13.139 3.26443C13.0186 3.1002 12.9608 2.8984 12.9759 2.69534C12.9911 2.49228 13.0782 2.3013 13.2217 2.15677L13.9614 1.41524C14.106 1.272 14.2968 1.18492 14.4998 1.16959C14.7028 1.15427 14.9045 1.2117 15.069 1.3316C15.2205 1.44404 15.3757 1.55927 15.5281 1.67542C15.8226 1.51745 16.1349 1.38829 16.4564 1.29165C16.4824 1.09929 16.5084 0.908799 16.5372 0.724809C16.5682 0.523673 16.6699 0.340181 16.824 0.207321C16.9782 0.0744607 17.1747 0.000948286 17.3782 0H18.4264C18.8445 0 19.2069 0.311296 19.2683 0.724809C19.2961 0.908799 19.3231 1.09929 19.3482 1.29165C19.6688 1.38829 19.9819 1.51838 20.2774 1.67635C20.4298 1.55927 20.5841 1.44404 20.7355 1.33253C20.8998 1.21252 21.1015 1.15501 21.3043 1.17034C21.5072 1.18566 21.6979 1.27283 21.8423 1.41617L22.5838 2.15677C22.7274 2.30118 22.8147 2.4921 22.83 2.69517C22.8454 2.89823 22.7877 3.1001 22.6674 3.26443C22.5559 3.41404 22.4398 3.56736 22.3227 3.72162C22.4825 4.01804 22.6108 4.32934 22.7083 4.65086C22.8997 4.67595 23.0893 4.70383 23.2752 4.7317C23.6887 4.7921 24 5.15451 24 5.57267V6.62178C23.999 6.82518 23.9254 7.02154 23.7926 7.17554C23.6597 7.32954 23.4762 7.43106 23.2752 7.46182C23.0893 7.49155 22.8997 7.51757 22.7083 7.54266C22.6116 7.86469 22.4824 8.17604 22.3227 8.4719C22.4398 8.62523 22.555 8.77855 22.6665 8.93002C22.7868 9.0941 22.8446 9.29575 22.8294 9.49865C22.8143 9.70155 22.7272 9.89237 22.5838 10.0367L21.8423 10.7783C21.6979 10.9216 21.5072 11.0088 21.3043 11.0241C21.1015 11.0394 20.8998 10.9819 20.7355 10.8619C20.5841 10.7504 20.4298 10.6333 20.2774 10.5172C19.9814 10.6767 19.6701 10.8059 19.3482 10.9028C19.3231 11.0942 19.2961 11.2838 19.2683 11.4696C19.2371 11.6709 19.1352 11.8544 18.9809 11.9872C18.8266 12.1201 18.63 12.1926 18.4264 12.1935ZM17.525 11.1741H18.2796C18.3056 11.005 18.3279 10.8331 18.3511 10.6612C18.3722 10.4951 18.442 10.3391 18.5516 10.2126C18.6612 10.0861 18.8058 9.99483 18.9672 9.95033C19.2831 9.86298 19.5879 9.7366 19.8732 9.57491C20.0188 9.49221 20.1856 9.45443 20.3526 9.46634C20.5196 9.47824 20.6794 9.5393 20.8117 9.64182L21.2243 9.95405L21.7596 9.4188C21.6573 9.2822 21.5523 9.14375 21.4473 9.00715C21.3446 8.87472 21.2833 8.71486 21.2713 8.54768C21.2592 8.38051 21.2969 8.2135 21.3795 8.06768C21.5421 7.78241 21.6676 7.47854 21.7558 7.16167C21.8002 7.00025 21.8914 6.85559 22.018 6.74594C22.1445 6.63629 22.3006 6.56658 22.4667 6.54558C22.6396 6.52235 22.8105 6.49912 22.9787 6.47496V5.71949C22.8096 5.69533 22.6396 5.67024 22.4667 5.64887C22.3007 5.62775 22.1446 5.55799 22.0181 5.44837C21.8916 5.33874 21.8003 5.19414 21.7558 5.03278C21.668 4.71619 21.5416 4.4116 21.3795 4.12584C21.2968 3.9802 21.2591 3.81333 21.2712 3.64629C21.2833 3.47925 21.3446 3.31953 21.4473 3.1873C21.5523 3.0507 21.6573 2.91132 21.7596 2.77472L21.2243 2.23947L20.8127 2.55263C20.6801 2.6552 20.5201 2.7162 20.3529 2.72794C20.1857 2.73969 20.0188 2.70164 19.8732 2.61861C19.588 2.45638 19.2837 2.33057 18.9672 2.24412C18.8059 2.19923 18.6614 2.10775 18.5518 1.98114C18.4422 1.85453 18.3724 1.69841 18.3511 1.53232C18.3279 1.36134 18.3046 1.1885 18.2796 1.02031H17.525C17.4999 1.18943 17.4758 1.36134 17.4535 1.53232C17.4326 1.69858 17.363 1.85494 17.2533 1.98163C17.1437 2.10833 16.9989 2.19967 16.8374 2.24412C16.5214 2.33054 16.2176 2.45785 15.9323 2.61861C15.7867 2.70176 15.6198 2.73987 15.4525 2.72813C15.2853 2.71639 15.1253 2.65531 14.9928 2.55263C14.8556 2.44778 14.7181 2.3434 14.5802 2.23947L14.0459 2.77472C14.1481 2.91132 14.2522 3.0507 14.3581 3.1873C14.5682 3.4605 14.5942 3.82848 14.4251 4.12584C14.2627 4.4115 14.1363 4.71612 14.0487 5.03278C14.0044 5.19402 13.9134 5.33851 13.787 5.44801C13.6607 5.5575 13.5047 5.62707 13.3388 5.64794C13.1659 5.67024 12.9949 5.6944 12.8258 5.71949V6.47496L13.3388 6.54558C13.5047 6.56675 13.6606 6.63654 13.787 6.74618C13.9133 6.85581 14.0044 7.00038 14.0487 7.16167C14.1361 7.47761 14.2624 7.78148 14.4251 8.06768C14.5076 8.2133 14.5453 8.38008 14.5334 8.54706C14.5215 8.71405 14.4606 8.87379 14.3581 9.00622C14.2522 9.14375 14.1472 9.2822 14.0459 9.4188L14.5802 9.95405C14.7178 9.85183 14.8553 9.74682 14.9928 9.64182C15.1252 9.5393 15.285 9.47824 15.452 9.46634C15.619 9.45443 15.7858 9.49221 15.9314 9.57491C16.2176 9.73567 16.5224 9.86298 16.8374 9.95033C16.999 9.99456 17.1438 10.0857 17.2536 10.2122C17.3635 10.3387 17.4333 10.495 17.4544 10.6612C17.4767 10.8331 17.4999 11.005 17.525 11.1741Z" fill="white"/>
<path fill-rule="evenodd" clip-rule="evenodd" d="M17.9023 8.27215C16.7035 8.27215 15.7278 7.29644 15.7278 6.09679C15.7278 4.89807 16.7035 3.92236 17.9023 3.92236C19.101 3.92236 20.0767 4.89807 20.0767 6.09679C20.076 6.67334 19.8467 7.22609 19.4391 7.63386C19.0315 8.04163 18.4788 8.27116 17.9023 8.27215ZM17.9023 4.8897C17.5901 4.90195 17.2948 5.03458 17.0782 5.25979C16.8617 5.485 16.7407 5.78529 16.7407 6.09772C16.7407 6.41015 16.8617 6.71044 17.0782 6.93565C17.2948 7.16086 17.5901 7.29349 17.9023 7.30574C18.2145 7.29349 18.5098 7.16086 18.7263 6.93565C18.9429 6.71044 19.0638 6.41015 19.0638 6.09772C19.0638 5.78529 18.9429 5.485 18.7263 5.25979C18.5098 5.03458 18.2145 4.90195 17.9023 4.8897Z" fill="white"/>
</svg>
