<svg width="25" height="24" viewBox="0 0 25 24" fill="none" xmlns="http://www.w3.org/2000/svg">
<path d="M22.4009 12.137C22.4281 12.0717 22.4352 11.9998 22.4215 11.9303C22.4078 11.8609 22.3739 11.7971 22.3239 11.747L18.0379 7.46201C18.0048 7.42885 17.9654 7.40255 17.9221 7.3846C17.8787 7.36666 17.8323 7.35742 17.7854 7.35742C17.7385 7.35742 17.6921 7.36666 17.6488 7.3846C17.6054 7.40255 17.5661 7.42885 17.5329 7.46201C17.4998 7.49517 17.4735 7.53453 17.4555 7.57786C17.4376 7.62118 17.4283 7.66762 17.4283 7.71451C17.4283 7.7614 17.4376 7.80784 17.4555 7.85116C17.4735 7.89449 17.4998 7.93385 17.5329 7.96701L21.2089 11.643H10.286C10.1913 11.643 10.1005 11.6806 10.0335 11.7476C9.96656 11.8145 9.92896 11.9053 9.92896 12C9.92896 12.0947 9.96656 12.1855 10.0335 12.2524C10.1005 12.3194 10.1913 12.357 10.286 12.357H21.2089L17.5329 16.033C17.4659 16.1 17.4283 16.1908 17.4283 16.2855C17.4283 16.3802 17.4659 16.471 17.5329 16.538C17.5999 16.605 17.6907 16.6426 17.7854 16.6426C17.8801 16.6426 17.9709 16.605 18.0379 16.538L22.3239 12.253C22.3569 12.2197 22.383 12.1803 22.4009 12.137Z" fill="black"/>
<path d="M16 13.786C15.9053 13.786 15.8145 13.8236 15.7476 13.8906C15.6806 13.9575 15.643 14.0483 15.643 14.143V21.286H4.214V12V2.714H15.643V9.857C15.643 9.95168 15.6806 10.0425 15.7476 10.1094C15.8145 10.1764 15.9053 10.214 16 10.214C16.0947 10.214 16.1855 10.1764 16.2524 10.1094C16.3194 10.0425 16.357 9.95168 16.357 9.857V2.357C16.357 2.26232 16.3194 2.17151 16.2524 2.10456C16.1855 2.03761 16.0947 2 16 2H3.857C3.76232 2 3.67151 2.03761 3.60456 2.10456C3.53761 2.17151 3.5 2.26232 3.5 2.357V21.643C3.5 21.84 3.66 22 3.857 22H16C16.197 22 16.357 21.84 16.357 21.643V14.143C16.357 14.0483 16.3194 13.9575 16.2524 13.8906C16.1855 13.8236 16.0947 13.786 16 13.786Z" fill="black"/>
</svg>
