<svg width="22" height="21" viewBox="0 0 22 21" fill="none" xmlns="http://www.w3.org/2000/svg">
<path d="M10.6 7.654C9.80663 7.65175 9.0207 7.80696 8.28773 8.11061C7.55477 8.41427 6.88934 8.86035 6.33 9.423C5.76739 9.98232 5.32141 10.6478 5.01792 11.3808C4.71443 12.1137 4.55946 12.8997 4.562 13.693C4.562 15.307 5.189 16.821 6.331 17.963C6.89032 18.5256 7.55577 18.9716 8.28875 19.2751C9.02174 19.5786 9.80767 19.7335 10.601 19.731C11.3943 19.7334 12.1802 19.5783 12.9132 19.2749C13.6461 18.9714 14.3116 18.5255 14.871 17.963C15.4336 17.4037 15.8796 16.7382 16.1831 16.0052C16.4866 15.2723 16.6415 14.4863 16.639 13.693C16.6412 12.8996 16.486 12.1137 16.1824 11.3807C15.8787 10.6478 15.4327 9.98234 14.87 9.423C14.3107 8.86026 13.6453 8.41412 12.9123 8.11046C12.1794 7.80679 11.3934 7.65164 10.6 7.654ZM15.039 9.254L15.126 9.331L15.115 9.341L15.315 9.569C16.3192 10.7079 16.8722 12.1746 16.87 13.693C16.87 15.366 16.217 16.942 15.033 18.125C14.4521 18.7089 13.7613 19.172 13.0004 19.4873C12.2395 19.8026 11.4236 19.9639 10.6 19.962C9.77653 19.9638 8.96086 19.8024 8.20014 19.4871C7.43942 19.1718 6.74874 18.7088 6.168 18.125C5.58417 17.5443 5.12123 16.8536 4.80592 16.0929C4.49061 15.3321 4.3292 14.5165 4.331 13.693C4.331 12.019 4.984 10.443 6.168 9.26C6.74874 8.67617 7.43942 8.21323 8.20014 7.89792C8.96086 7.58261 9.77653 7.4212 10.6 7.423C12.127 7.423 13.577 7.973 14.724 8.979L14.952 9.179L14.962 9.167L15.039 9.254ZM10.6 3.193C10.664 3.193 10.716 3.245 10.716 3.308V1C10.716 1.03077 10.7038 1.06027 10.682 1.08202C10.6603 1.10378 10.6308 1.116 10.6 1.116C10.5694 1.11574 10.5402 1.1034 10.5186 1.08167C10.4971 1.05995 10.485 1.03059 10.485 1V3.308C10.485 3.245 10.537 3.193 10.6 3.193ZM20.037 5.025C20.0153 5.00325 20.003 4.97375 20.003 4.943C20.003 4.91225 20.0153 4.88275 20.037 4.861L18.407 6.493C18.4287 6.47156 18.458 6.45955 18.4885 6.45955C18.519 6.45955 18.5483 6.47156 18.57 6.493C18.5917 6.51475 18.604 6.54425 18.604 6.575C18.604 6.60575 18.5917 6.63525 18.57 6.657L20.202 5.025C20.1803 5.04644 20.151 5.05845 20.1205 5.05845C20.09 5.05845 20.0607 5.04644 20.039 5.025H20.037ZM1 5.025L2.632 6.657C2.61613 6.64073 2.60538 6.62015 2.6011 6.59782C2.59683 6.5755 2.5992 6.55241 2.60794 6.53142C2.61667 6.51043 2.63138 6.49247 2.65024 6.47978C2.6691 6.46708 2.69127 6.4602 2.714 6.46C2.744 6.46 2.774 6.472 2.795 6.493L1.163 4.861C1.18474 4.88275 1.19695 4.91225 1.19695 4.943C1.19695 4.97375 1.18474 5.00325 1.163 5.025C1.14129 5.04644 1.11201 5.05845 1.0815 5.05845C1.05099 5.05845 1.02171 5.04644 1 5.025ZM13.973 1.429L13.376 3.659C13.3797 3.64435 13.3863 3.63058 13.3954 3.61848C13.4044 3.60638 13.4158 3.59618 13.4288 3.58847C13.4418 3.58077 13.4562 3.5757 13.4712 3.57356C13.4861 3.57142 13.5014 3.57225 13.516 3.576C13.579 3.593 13.615 3.656 13.599 3.717L14.196 1.489C14.1921 1.50364 14.1853 1.51737 14.176 1.52939C14.1668 1.54141 14.1553 1.55149 14.1421 1.55906C14.129 1.56662 14.1145 1.57153 14.0995 1.57349C14.0844 1.57546 14.0691 1.57444 14.0545 1.5705C14.0399 1.56656 14.0261 1.55978 14.0141 1.55053C14.0021 1.54129 13.992 1.52977 13.9844 1.51663C13.9769 1.50349 13.972 1.48899 13.97 1.47395C13.968 1.45892 13.9691 1.44364 13.973 1.429ZM7.005 1.489L7.602 3.718C7.59806 3.70336 7.59704 3.68808 7.59901 3.67305C7.60097 3.65801 7.60588 3.64351 7.61344 3.63037C7.62101 3.61723 7.63109 3.60571 7.64311 3.59647C7.65513 3.58722 7.66886 3.58044 7.6835 3.5765C7.69814 3.57256 7.71342 3.57154 7.72845 3.57351C7.74349 3.57547 7.75799 3.58038 7.77113 3.58794C7.78427 3.59551 7.79579 3.60559 7.80503 3.61761C7.81428 3.62963 7.82106 3.64336 7.825 3.658L7.228 1.43C7.23279 1.45844 7.22681 1.48764 7.21123 1.51191C7.19566 1.53618 7.1716 1.55378 7.14375 1.56127C7.1159 1.56877 7.08626 1.56562 7.06061 1.55244C7.03495 1.53926 7.01513 1.517 7.005 1.49V1.489ZM17.232 2.746L16.077 4.745C16.0922 4.71848 16.1174 4.6991 16.1469 4.69113C16.1765 4.68316 16.208 4.68725 16.2345 4.7025C16.261 4.71775 16.2804 4.74291 16.2884 4.77245C16.2963 4.80199 16.2922 4.83348 16.277 4.86L17.431 2.862C17.4157 2.88837 17.3906 2.90761 17.3612 2.91548C17.3318 2.92336 17.3004 2.91923 17.274 2.904C17.2476 2.88854 17.2283 2.86326 17.2204 2.83366C17.2126 2.80406 17.2167 2.77255 17.232 2.746ZM5.124 4.745L3.97 2.746C3.98538 2.77252 3.9896 2.80407 3.98172 2.8337C3.97385 2.86333 3.95452 2.88862 3.928 2.904C3.90148 2.91938 3.86993 2.9236 3.8403 2.91572C3.81067 2.90785 3.78538 2.88852 3.77 2.862L4.923 4.86C4.91142 4.8338 4.90995 4.80424 4.91886 4.77701C4.92777 4.74979 4.94644 4.72683 4.97128 4.71255C4.99611 4.69827 5.02535 4.69368 5.05336 4.69967C5.08138 4.70567 5.10718 4.72181 5.124 4.745Z" stroke="white" stroke-width="2"/>
</svg>
