<svg width="24" height="25" viewBox="0 0 24 25" fill="none" xmlns="http://www.w3.org/2000/svg">
<path d="M15.5 11.5C16.3284 11.5 17 10.8284 17 10C17 9.17157 16.3284 8.5 15.5 8.5C14.6716 8.5 14 9.17157 14 10C14 10.8284 14.6716 11.5 15.5 11.5Z" fill="black"/>
<path d="M8.5 11.5C9.32843 11.5 10 10.8284 10 10C10 9.17157 9.32843 8.5 8.5 8.5C7.67157 8.5 7 9.17157 7 10C7 10.8284 7.67157 11.5 8.5 11.5Z" fill="black"/>
<path d="M12 16.5C10.52 16.5 9.25 15.69 8.55 14.5H6.88C7.68 16.55 9.67 18 12 18C14.33 18 16.32 16.55 17.12 14.5H15.45C14.75 15.69 13.48 16.5 12 16.5ZM11.99 2.5C6.47 2.5 2 6.98 2 12.5C2 18.02 6.47 22.5 11.99 22.5C17.52 22.5 22 18.02 22 12.5C22 6.98 17.52 2.5 11.99 2.5ZM12 20.5C7.58 20.5 4 16.92 4 12.5C4 8.08 7.58 4.5 12 4.5C16.42 4.5 20 8.08 20 12.5C20 16.92 16.42 20.5 12 20.5Z" fill="black"/>
</svg>
